<svg width="215" height="88" viewBox="0 0 215 88" fill="none" xmlns="http://www.w3.org/2000/svg">
<rect x="15.6074" width="198.592" height="79.0928" fill="#C48245"/>
<rect x="3.57031" y="8.59717" width="198.592" height="79.0928" fill="#EBB751"/>
<path d="M85.9649 51.3806H75.4649V40.8806L77.5649 38.7806H75.4649V36.6806H85.9649V38.7806H77.8649V44.7806L79.6649 42.9806H85.9649V45.0806H77.8649V49.2806H85.9649V51.3806ZM100.365 51.3806H98.2649V42.6806H91.9649V51.3806H89.8649V40.8806H91.9649V42.3806L93.4649 40.8806H98.2649C98.8449 40.8806 99.3349 41.0906 99.7349 41.5106C100.155 41.9106 100.365 42.4006 100.365 42.9806V51.3806ZM111.472 51.3806H107.272C106.692 51.3806 106.192 51.1806 105.772 50.7806C105.372 50.3606 105.172 49.8606 105.172 49.2806V42.6806H102.172L103.972 40.8806H105.172V38.7806L107.272 36.6806V40.8806H111.472V42.6806H107.272V49.5806H111.472V51.3806ZM124.974 51.3806H116.574C115.994 51.3806 115.494 51.1806 115.074 50.7806C114.674 50.3606 114.474 49.8606 114.474 49.2806V42.9806C114.474 42.4006 114.674 41.9106 115.074 41.5106C115.494 41.0906 115.994 40.8806 116.574 40.8806H122.874C123.454 40.8806 123.944 41.0906 124.344 41.5106C124.764 41.9106 124.974 42.4006 124.974 42.9806V45.0806L122.874 47.1806H116.874L118.674 45.3806H122.874V42.6806H116.574V49.5806H124.974V51.3806ZM136.673 45.0806H134.573V42.6806H130.373V51.3806H128.273V40.8806H130.373V42.3806L131.873 40.8806H134.573C135.153 40.8806 135.643 41.0906 136.043 41.5106C136.463 41.9106 136.673 42.4006 136.673 42.9806V45.0806Z" fill="black"/>
</svg>
