<svg width="217" height="88" viewBox="0 0 217 88" fill="none" xmlns="http://www.w3.org/2000/svg">
<rect x="17.6074" width="198.592" height="79.0928" fill="#C48245"/>
<rect x="5.57031" y="8.59717" width="198.592" height="79.0928" fill="#EBB751"/>
<path d="M74.3556 59H57.5556V42.2L60.9156 38.84H57.5556V35.48H74.3556V38.84H61.3956V48.44L64.2756 45.56H74.3556V48.92H61.3956V55.64H74.3556V59ZM97.3956 59H94.0356V45.08H83.9556V59H80.5956V42.2H83.9556V44.6L86.3556 42.2H94.0356C94.9636 42.2 95.7476 42.536 96.3876 43.208C97.0596 43.848 97.3956 44.632 97.3956 45.56V59ZM115.167 59H108.447C107.519 59 106.719 58.68 106.047 58.04C105.407 57.368 105.087 56.568 105.087 55.64V45.08H100.287L103.167 42.2H105.087V38.84L108.447 35.48V42.2H115.167V45.08H108.447V56.12H115.167V59ZM136.771 59H123.331C122.403 59 121.603 58.68 120.931 58.04C120.291 57.368 119.971 56.568 119.971 55.64V45.56C119.971 44.632 120.291 43.848 120.931 43.208C121.603 42.536 122.403 42.2 123.331 42.2H133.411C134.339 42.2 135.123 42.536 135.763 43.208C136.435 43.848 136.771 44.632 136.771 45.56V48.92L133.411 52.28H123.811L126.691 49.4H133.411V45.08H123.331V56.12H136.771V59ZM155.489 48.92H152.129V45.08H145.409V59H142.049V42.2H145.409V44.6L147.809 42.2H152.129C153.057 42.2 153.841 42.536 154.481 43.208C155.153 43.848 155.489 44.632 155.489 45.56V48.92Z" fill="black"/>
</svg>
