<svg width="1440" height="900" viewBox="0 0 1440 900" fill="none" xmlns="http://www.w3.org/2000/svg">
<g clip-path="url(#clip0_278_937)">
<rect width="1440" height="900" fill="#FFF7FF"/>
<path fill-rule="evenodd" clip-rule="evenodd" d="M1138.4 691.074C1133.82 696.834 1126.38 700.173 1118.44 699.259C1113.76 698.722 1109.59 696.79 1106.31 693.937C1102.49 699.238 1095.81 702.373 1088.64 701.548C1086.53 701.305 1084.54 700.738 1082.71 699.903C1081.94 703.973 1077.99 706.801 1073.61 706.298C1072.02 706.115 1070.58 705.512 1069.4 704.621C1066.44 705.993 1062.96 706.597 1059.34 706.18C1056.5 705.853 1053.89 704.936 1051.65 703.588C1049.29 709.142 1043.29 712.718 1036.76 711.967C1036.28 711.911 1035.8 711.833 1035.33 711.733C1034.56 712.593 1033.59 713.284 1032.51 713.755C1032.81 714.546 1032.93 715.402 1032.83 716.279C1032.46 719.498 1029.22 721.769 1025.58 721.351C1021.95 720.933 1019.3 717.984 1019.67 714.765C1019.86 713.15 1020.77 711.773 1022.09 710.855C1021.03 709.342 1020.51 707.486 1020.73 705.551C1021 703.24 1022.27 701.281 1024.1 700.028C1023.94 698.913 1023.92 697.763 1024.05 696.596C1024.5 692.634 1026.66 689.266 1029.75 687.082C1029.76 686.792 1029.78 686.501 1029.82 686.208C1030.64 679.047 1037.03 673.824 1044.38 674.032C1046.78 668.547 1052.74 665.028 1059.22 665.774C1061.76 666.066 1064.07 666.974 1066 668.324C1068.74 657.954 1079.27 650.933 1090.88 652.268C1097.41 653.019 1103.01 656.271 1106.71 660.882C1111.2 657.212 1117.15 655.289 1123.41 656.009C1132 656.997 1138.88 662.691 1141.7 670.164C1144.32 668.644 1147.47 667.923 1150.77 668.302C1158.66 669.21 1164.35 676.092 1163.48 683.673C1162.61 691.254 1155.5 696.664 1147.61 695.756C1143.9 695.33 1140.68 693.587 1138.4 691.074Z" fill="#DAC8D7"/>
<path d="M733 637.887C947 598.769 1160 717.879 1160 717.879V902.387H332.5C332.5 902.387 519 677.005 733 637.887Z" fill="#E7D5F5"/>
<path d="M1077 695C1387 642.083 1647 777.774 1647 777.774V924H635C635 924 873.738 729.697 1077 695Z" fill="#FAE4F5"/>
<path d="M155.5 760.129C49.1692 736.22 -119 810.505 -119 810.505V903.387H369C369 903.387 253.516 782.168 155.5 760.129Z" fill="#EAD7EC"/>
<path d="M847.806 618.545C847.648 619.109 847.402 619.584 847.096 619.917C846.791 620.249 846.438 620.426 846.077 620.426H824.923V637.181C824.923 638.07 824.72 638.922 824.359 639.55C823.999 640.179 823.51 640.532 822.999 640.532C822.489 640.532 822 640.179 821.64 639.55C821.279 638.922 821.076 638.07 821.076 637.181V620.426H799.922C799.562 620.425 799.209 620.249 798.904 619.916C798.599 619.584 798.353 619.109 798.195 618.546C798.037 617.983 797.973 617.353 798.01 616.73C798.047 616.106 798.184 615.513 798.405 615.018L809.463 590.266H803.768C803.409 590.266 803.057 590.091 802.752 589.76C802.447 589.43 802.201 588.957 802.042 588.395C801.884 587.833 801.819 587.206 801.854 586.583C801.89 585.96 802.025 585.367 802.244 584.871L821.475 541.307C821.655 540.901 821.886 540.571 822.15 540.345C822.414 540.118 822.705 540 822.999 540C823.294 540 823.585 540.118 823.849 540.345C824.113 540.571 824.344 540.901 824.524 541.307L843.755 584.871C843.974 585.367 844.109 585.96 844.145 586.583C844.18 587.206 844.115 587.833 843.957 588.395C843.798 588.957 843.552 589.43 843.247 589.76C842.942 590.091 842.59 590.266 842.231 590.266H836.548L847.594 615.018C847.815 615.512 847.952 616.105 847.99 616.729C848.027 617.352 847.963 617.981 847.806 618.545Z" fill="#EDD3F3"/>
<path d="M111.806 752.545C111.648 753.109 111.402 753.584 111.096 753.917C110.791 754.249 110.438 754.426 110.077 754.426H88.9226V771.181C88.9226 772.07 88.72 772.922 88.3593 773.55C87.9987 774.179 87.5095 774.532 86.9995 774.532C86.4894 774.532 86.0003 774.179 85.6396 773.55C85.2789 772.922 85.0763 772.07 85.0763 771.181V754.426H63.9217C63.5619 754.425 63.2093 754.249 62.9041 753.916C62.5989 753.584 62.3534 753.109 62.1953 752.546C62.0373 751.983 61.9732 751.353 62.0102 750.73C62.0472 750.106 62.184 749.513 62.4048 749.018L73.4629 724.266H67.768C67.4088 724.266 67.0567 724.091 66.7517 723.76C66.4468 723.43 66.201 722.957 66.0424 722.395C65.8837 721.833 65.8185 721.206 65.8541 720.583C65.8898 719.96 66.0248 719.367 66.2439 718.871L85.4754 675.307C85.655 674.901 85.8858 674.571 86.1501 674.345C86.4143 674.118 86.7049 674 86.9995 674C87.294 674 87.5846 674.118 87.8489 674.345C88.1131 674.571 88.3439 674.901 88.5236 675.307L107.755 718.871C107.974 719.367 108.109 719.96 108.145 720.583C108.18 721.206 108.115 721.833 107.957 722.395C107.798 722.957 107.552 723.43 107.247 723.76C106.942 724.091 106.59 724.266 106.231 724.266H100.548L111.594 749.018C111.815 749.512 111.952 750.105 111.99 750.729C112.027 751.352 111.963 751.981 111.806 752.545Z" fill="#EDD3F3"/>
<path d="M709.86 637.852C709.746 638.26 709.569 638.604 709.349 638.845C709.129 639.085 708.875 639.213 708.616 639.213H693.384V651.34C693.384 651.984 693.238 652.601 692.979 653.056C692.719 653.51 692.367 653.766 692 653.766C691.632 653.766 691.28 653.51 691.021 653.056C690.761 652.601 690.615 651.984 690.615 651.34V639.213H675.384C675.125 639.212 674.871 639.085 674.651 638.844C674.431 638.604 674.254 638.26 674.141 637.852C674.027 637.445 673.981 636.989 674.007 636.538C674.034 636.086 674.132 635.657 674.291 635.299L682.253 617.383H678.153C677.894 617.383 677.641 617.256 677.421 617.017C677.202 616.778 677.025 616.435 676.911 616.029C676.796 615.622 676.749 615.168 676.775 614.717C676.801 614.266 676.898 613.837 677.056 613.478L690.902 581.946C691.032 581.652 691.198 581.413 691.388 581.249C691.578 581.085 691.788 581 692 581C692.212 581 692.421 581.085 692.611 581.249C692.801 581.413 692.968 581.652 693.097 581.946L706.944 613.478C707.101 613.837 707.199 614.266 707.224 614.717C707.25 615.168 707.203 615.622 707.089 616.029C706.975 616.435 706.798 616.778 706.578 617.017C706.358 617.256 706.105 617.383 705.846 617.383H701.755L709.708 635.299C709.867 635.657 709.966 636.086 709.992 636.537C710.019 636.988 709.974 637.444 709.86 637.852Z" fill="#EDD3F3"/>
<path d="M1400.81 695.417C1400.65 695.982 1400.4 696.457 1400.1 696.789C1399.79 697.122 1399.44 697.298 1399.08 697.298H1377.92V714.053C1377.92 714.942 1377.72 715.795 1377.36 716.423C1377 717.051 1376.51 717.404 1376 717.404C1375.49 717.404 1375 717.051 1374.64 716.423C1374.28 715.795 1374.08 714.942 1374.08 714.053V697.298H1352.92C1352.56 697.298 1352.21 697.121 1351.9 696.789C1351.6 696.457 1351.35 695.982 1351.2 695.419C1351.04 694.855 1350.97 694.226 1351.01 693.602C1351.05 692.979 1351.18 692.385 1351.4 691.89L1362.46 667.139H1356.77C1356.41 667.139 1356.06 666.964 1355.75 666.633C1355.45 666.302 1355.2 665.829 1355.04 665.268C1354.88 664.706 1354.82 664.078 1354.85 663.455C1354.89 662.833 1355.02 662.24 1355.24 661.744L1374.48 618.18C1374.66 617.773 1374.89 617.444 1375.15 617.217C1375.41 616.99 1375.7 616.873 1376 616.873C1376.29 616.873 1376.58 616.99 1376.85 617.217C1377.11 617.444 1377.34 617.773 1377.52 618.18L1396.76 661.744C1396.97 662.24 1397.11 662.833 1397.14 663.455C1397.18 664.078 1397.12 664.706 1396.96 665.268C1396.8 665.829 1396.55 666.302 1396.25 666.633C1395.94 666.964 1395.59 667.139 1395.23 667.139H1389.55L1400.59 691.89C1400.82 692.385 1400.95 692.978 1400.99 693.601C1401.03 694.225 1400.96 694.854 1400.81 695.417Z" fill="#EDD3F3"/>
<path d="M1001.88 650.066C1001.78 650.41 1001.63 650.7 1001.44 650.903C1001.25 651.105 1001.03 651.213 1000.81 651.213H987.692V661.425C987.692 661.967 987.566 662.487 987.343 662.87C987.119 663.253 986.816 663.468 986.5 663.468C986.183 663.468 985.88 663.253 985.657 662.87C985.433 662.487 985.307 661.967 985.307 661.425V651.213H972.191C971.968 651.212 971.75 651.105 971.561 650.902C971.371 650.7 971.219 650.41 971.121 650.067C971.023 649.724 970.983 649.34 971.006 648.96C971.029 648.58 971.114 648.218 971.251 647.917L978.107 632.83H974.576C974.353 632.83 974.135 632.723 973.946 632.521C973.757 632.32 973.605 632.032 973.506 631.689C973.408 631.347 973.367 630.964 973.39 630.585C973.412 630.205 973.495 629.844 973.631 629.541L985.555 602.988C985.666 602.74 985.809 602.54 985.973 602.401C986.137 602.263 986.317 602.191 986.5 602.191C986.682 602.191 986.862 602.263 987.026 602.401C987.19 602.54 987.333 602.74 987.445 602.988L999.368 629.541C999.504 629.844 999.588 630.205 999.61 630.585C999.632 630.964 999.591 631.347 999.493 631.689C999.395 632.032 999.242 632.32 999.053 632.521C998.864 632.723 998.646 632.83 998.423 632.83H994.9L1001.75 647.917C1001.89 648.218 1001.97 648.579 1001.99 648.959C1002.02 649.339 1001.98 649.723 1001.88 650.066Z" fill="#DAC9D7"/>
<path d="M1001.88 650.066C1001.78 650.41 1001.63 650.7 1001.44 650.903C1001.25 651.105 1001.03 651.213 1000.81 651.213H987.692V661.425C987.692 661.967 987.566 662.487 987.343 662.87C987.119 663.253 986.816 663.468 986.5 663.468C986.183 663.468 985.88 663.253 985.657 662.87C985.433 662.487 985.307 661.967 985.307 661.425V651.213H972.191C971.968 651.212 971.75 651.105 971.561 650.902C971.371 650.7 971.219 650.41 971.121 650.067C971.023 649.724 970.983 649.34 971.006 648.96C971.029 648.58 971.114 648.218 971.251 647.917L978.107 632.83H974.576C974.353 632.83 974.135 632.723 973.946 632.521C973.757 632.32 973.605 632.032 973.506 631.689C973.408 631.347 973.367 630.964 973.39 630.585C973.412 630.205 973.495 629.844 973.631 629.541L985.555 602.988C985.666 602.74 985.809 602.54 985.973 602.401C986.137 602.263 986.317 602.191 986.5 602.191C986.682 602.191 986.862 602.263 987.026 602.401C987.19 602.54 987.333 602.74 987.445 602.988L999.368 629.541C999.504 629.844 999.588 630.205 999.61 630.585C999.632 630.964 999.591 631.347 999.493 631.689C999.395 632.032 999.242 632.32 999.053 632.521C998.864 632.723 998.646 632.83 998.423 632.83H994.9L1001.75 647.917C1001.89 648.218 1001.97 648.579 1001.99 648.959C1002.02 649.339 1001.98 649.723 1001.88 650.066Z" fill="#DAC9D7"/>
<path d="M872.88 624.258C872.782 624.602 872.629 624.891 872.44 625.094C872.25 625.297 872.031 625.404 871.808 625.404H858.692V635.617C858.692 636.159 858.566 636.678 858.343 637.061C858.119 637.444 857.816 637.659 857.5 637.659C857.183 637.659 856.88 637.444 856.657 637.061C856.433 636.678 856.307 636.159 856.307 635.617V625.404H843.191C842.968 625.404 842.75 625.296 842.561 625.094C842.371 624.891 842.219 624.602 842.121 624.259C842.023 623.915 841.983 623.532 842.006 623.151C842.029 622.771 842.114 622.41 842.251 622.108L849.107 607.021H845.576C845.353 607.021 845.135 606.914 844.946 606.713C844.757 606.511 844.605 606.223 844.506 605.881C844.408 605.538 844.367 605.156 844.39 604.776C844.412 604.397 844.495 604.035 844.631 603.733L856.555 577.18C856.666 576.932 856.809 576.731 856.973 576.593C857.137 576.455 857.317 576.383 857.5 576.383C857.682 576.383 857.862 576.455 858.026 576.593C858.19 576.731 858.333 576.932 858.445 577.18L870.368 603.733C870.504 604.035 870.588 604.397 870.61 604.776C870.632 605.156 870.591 605.538 870.493 605.881C870.395 606.223 870.242 606.511 870.053 606.713C869.864 606.914 869.646 607.021 869.423 607.021H865.9L872.748 622.108C872.885 622.409 872.97 622.771 872.994 623.151C873.017 623.531 872.977 623.914 872.88 624.258Z" fill="#DAC9D7"/>
<path d="M872.88 624.258C872.782 624.602 872.629 624.891 872.44 625.094C872.25 625.297 872.031 625.404 871.808 625.404H858.692V635.617C858.692 636.159 858.566 636.678 858.343 637.061C858.119 637.444 857.816 637.659 857.5 637.659C857.183 637.659 856.88 637.444 856.657 637.061C856.433 636.678 856.307 636.159 856.307 635.617V625.404H843.191C842.968 625.404 842.75 625.296 842.561 625.094C842.371 624.891 842.219 624.602 842.121 624.259C842.023 623.915 841.983 623.532 842.006 623.151C842.029 622.771 842.114 622.41 842.251 622.108L849.107 607.021H845.576C845.353 607.021 845.135 606.914 844.946 606.713C844.757 606.511 844.605 606.223 844.506 605.881C844.408 605.538 844.367 605.156 844.39 604.776C844.412 604.397 844.495 604.035 844.631 603.733L856.555 577.18C856.666 576.932 856.809 576.731 856.973 576.593C857.137 576.455 857.317 576.383 857.5 576.383C857.682 576.383 857.862 576.455 858.026 576.593C858.19 576.731 858.333 576.932 858.445 577.18L870.368 603.733C870.504 604.035 870.588 604.397 870.61 604.776C870.632 605.156 870.591 605.538 870.493 605.881C870.395 606.223 870.242 606.511 870.053 606.713C869.864 606.914 869.646 607.021 869.423 607.021H865.9L872.748 622.108C872.885 622.409 872.97 622.771 872.994 623.151C873.017 623.531 872.977 623.914 872.88 624.258Z" fill="#DAC9D7"/>
<path d="M61.8795 763.875C61.7815 764.219 61.6291 764.509 61.4396 764.711C61.2502 764.914 61.0313 765.021 60.8079 765.021H47.692V775.234C47.692 775.776 47.5664 776.295 47.3428 776.678C47.1192 777.061 46.8159 777.277 46.4997 777.277C46.1834 777.277 45.8802 777.061 45.6566 776.678C45.4329 776.295 45.3073 775.776 45.3073 775.234V765.021H32.1915C31.9683 765.021 31.7498 764.914 31.5605 764.711C31.3713 764.508 31.2191 764.219 31.1211 763.876C31.0231 763.532 30.9834 763.149 31.0063 762.769C31.0293 762.388 31.1141 762.027 31.251 761.725L38.107 746.638H34.5762C34.3534 746.638 34.1352 746.532 33.9461 746.33C33.757 746.129 33.6046 745.84 33.5063 745.498C33.4079 745.156 33.3675 744.773 33.3896 744.393C33.4117 744.014 33.4954 743.652 33.6312 743.35L45.5547 716.797C45.6661 716.549 45.8092 716.348 45.9731 716.21C46.1369 716.072 46.3171 716 46.4997 716C46.6823 716 46.8625 716.072 47.0263 716.21C47.1901 716.348 47.3332 716.549 47.4446 716.797L59.3681 743.35C59.504 743.652 59.5877 744.014 59.6098 744.393C59.6319 744.773 59.5914 745.156 59.4931 745.498C59.3947 745.84 59.2424 746.129 59.0533 746.33C58.8642 746.532 58.6459 746.638 58.4232 746.638H54.8998L61.7484 761.725C61.8854 762.027 61.9704 762.388 61.9935 762.768C62.0167 763.148 61.9772 763.531 61.8795 763.875Z" fill="#DAC9D7"/>
<path d="M61.8795 763.875C61.7815 764.219 61.6291 764.509 61.4396 764.711C61.2502 764.914 61.0313 765.021 60.8079 765.021H47.692V775.234C47.692 775.776 47.5664 776.295 47.3428 776.678C47.1192 777.061 46.8159 777.277 46.4997 777.277C46.1834 777.277 45.8802 777.061 45.6566 776.678C45.4329 776.295 45.3073 775.776 45.3073 775.234V765.021H32.1915C31.9683 765.021 31.7498 764.914 31.5605 764.711C31.3713 764.508 31.2191 764.219 31.1211 763.876C31.0231 763.532 30.9834 763.149 31.0063 762.769C31.0293 762.388 31.1141 762.027 31.251 761.725L38.107 746.638H34.5762C34.3534 746.638 34.1352 746.532 33.9461 746.33C33.757 746.129 33.6046 745.84 33.5063 745.498C33.4079 745.156 33.3675 744.773 33.3896 744.393C33.4117 744.014 33.4954 743.652 33.6312 743.35L45.5547 716.797C45.6661 716.549 45.8092 716.348 45.9731 716.21C46.1369 716.072 46.3171 716 46.4997 716C46.6823 716 46.8625 716.072 47.0263 716.21C47.1901 716.348 47.3332 716.549 47.4446 716.797L59.3681 743.35C59.504 743.652 59.5877 744.014 59.6098 744.393C59.6319 744.773 59.5914 745.156 59.4931 745.498C59.3947 745.84 59.2424 746.129 59.0533 746.33C58.8642 746.532 58.6459 746.638 58.4232 746.638H54.8998L61.7484 761.725C61.8854 762.027 61.9704 762.388 61.9935 762.768C62.0167 763.148 61.9772 763.531 61.8795 763.875Z" fill="#DAC9D7"/>
<path d="M680.88 647.066C680.782 647.41 680.629 647.7 680.44 647.903C680.25 648.105 680.031 648.213 679.808 648.213H666.692V658.425C666.692 658.967 666.566 659.487 666.343 659.87C666.119 660.253 665.816 660.468 665.5 660.468C665.183 660.468 664.88 660.253 664.657 659.87C664.433 659.487 664.307 658.967 664.307 658.425V648.213H651.191C650.968 648.212 650.75 648.105 650.561 647.902C650.371 647.7 650.219 647.41 650.121 647.067C650.023 646.724 649.983 646.34 650.006 645.96C650.029 645.58 650.114 645.218 650.251 644.917L657.107 629.83H653.576C653.353 629.83 653.135 629.723 652.946 629.521C652.757 629.32 652.605 629.032 652.506 628.689C652.408 628.347 652.367 627.964 652.39 627.585C652.412 627.205 652.495 626.844 652.631 626.541L664.555 599.988C664.666 599.74 664.809 599.54 664.973 599.401C665.137 599.263 665.317 599.191 665.5 599.191C665.682 599.191 665.862 599.263 666.026 599.401C666.19 599.54 666.333 599.74 666.445 599.988L678.368 626.541C678.504 626.844 678.588 627.205 678.61 627.585C678.632 627.964 678.591 628.347 678.493 628.689C678.395 629.032 678.242 629.32 678.053 629.521C677.864 629.723 677.646 629.83 677.423 629.83H673.9L680.748 644.917C680.885 645.218 680.97 645.579 680.994 645.959C681.017 646.339 680.977 646.723 680.88 647.066Z" fill="#DAC9D7"/>
<path d="M680.88 647.066C680.782 647.41 680.629 647.7 680.44 647.903C680.25 648.105 680.031 648.213 679.808 648.213H666.692V658.425C666.692 658.967 666.566 659.487 666.343 659.87C666.119 660.253 665.816 660.468 665.5 660.468C665.183 660.468 664.88 660.253 664.657 659.87C664.433 659.487 664.307 658.967 664.307 658.425V648.213H651.191C650.968 648.212 650.75 648.105 650.561 647.902C650.371 647.7 650.219 647.41 650.121 647.067C650.023 646.724 649.983 646.34 650.006 645.96C650.029 645.58 650.114 645.218 650.251 644.917L657.107 629.83H653.576C653.353 629.83 653.135 629.723 652.946 629.521C652.757 629.32 652.605 629.032 652.506 628.689C652.408 628.347 652.367 627.964 652.39 627.585C652.412 627.205 652.495 626.844 652.631 626.541L664.555 599.988C664.666 599.74 664.809 599.54 664.973 599.401C665.137 599.263 665.317 599.191 665.5 599.191C665.682 599.191 665.862 599.263 666.026 599.401C666.19 599.54 666.333 599.74 666.445 599.988L678.368 626.541C678.504 626.844 678.588 627.205 678.61 627.585C678.632 627.964 678.591 628.347 678.493 628.689C678.395 629.032 678.242 629.32 678.053 629.521C677.864 629.723 677.646 629.83 677.423 629.83H673.9L680.748 644.917C680.885 645.218 680.97 645.579 680.994 645.959C681.017 646.339 680.977 646.723 680.88 647.066Z" fill="#DAC9D7"/>
<path d="M727.93 637.401C727.873 637.6 727.785 637.768 727.675 637.885C727.565 638.002 727.438 638.064 727.308 638.064H719.692V643.968C719.692 644.282 719.619 644.582 719.489 644.803C719.36 645.025 719.183 645.149 719 645.149C718.816 645.149 718.64 645.025 718.51 644.803C718.38 644.582 718.307 644.282 718.307 643.968V638.064H710.692C710.562 638.064 710.435 638.002 710.325 637.885C710.216 637.768 710.127 637.6 710.07 637.402C710.013 637.203 709.99 636.982 710.004 636.762C710.017 636.542 710.066 636.333 710.146 636.158L714.127 627.436H712.076C711.947 627.436 711.82 627.375 711.711 627.258C711.601 627.142 711.512 626.975 711.455 626.777C711.398 626.579 711.375 626.358 711.387 626.139C711.4 625.919 711.449 625.71 711.528 625.535L718.451 610.184C718.516 610.041 718.599 609.925 718.694 609.845C718.789 609.765 718.894 609.724 719 609.724C719.106 609.724 719.21 609.765 719.306 609.845C719.401 609.925 719.484 610.041 719.548 610.184L726.472 625.535C726.551 625.71 726.599 625.919 726.612 626.139C726.625 626.358 726.601 626.579 726.544 626.777C726.487 626.975 726.399 627.142 726.289 627.258C726.179 627.375 726.052 627.436 725.923 627.436H723.877L727.854 636.158C727.933 636.333 727.983 636.542 727.996 636.761C728.01 636.981 727.987 637.203 727.93 637.401Z" fill="#DAC9D7"/>
<path d="M727.93 637.401C727.873 637.6 727.785 637.768 727.675 637.885C727.565 638.002 727.438 638.064 727.308 638.064H719.692V643.968C719.692 644.282 719.619 644.582 719.489 644.803C719.36 645.025 719.183 645.149 719 645.149C718.816 645.149 718.64 645.025 718.51 644.803C718.38 644.582 718.307 644.282 718.307 643.968V638.064H710.692C710.562 638.064 710.435 638.002 710.325 637.885C710.216 637.768 710.127 637.6 710.07 637.402C710.013 637.203 709.99 636.982 710.004 636.762C710.017 636.542 710.066 636.333 710.146 636.158L714.127 627.436H712.076C711.947 627.436 711.82 627.375 711.711 627.258C711.601 627.142 711.512 626.975 711.455 626.777C711.398 626.579 711.375 626.358 711.387 626.139C711.4 625.919 711.449 625.71 711.528 625.535L718.451 610.184C718.516 610.041 718.599 609.925 718.694 609.845C718.789 609.765 718.894 609.724 719 609.724C719.106 609.724 719.21 609.765 719.306 609.845C719.401 609.925 719.484 610.041 719.548 610.184L726.472 625.535C726.551 625.71 726.599 625.919 726.612 626.139C726.625 626.358 726.601 626.579 726.544 626.777C726.487 626.975 726.399 627.142 726.289 627.258C726.179 627.375 726.052 627.436 725.923 627.436H723.877L727.854 636.158C727.933 636.333 727.983 636.542 727.996 636.761C728.01 636.981 727.987 637.203 727.93 637.401Z" fill="#DAC9D7"/>
<path d="M805.907 627.399C805.831 627.662 805.713 627.884 805.566 628.039C805.419 628.194 805.25 628.277 805.077 628.277H794.923V636.096C794.923 636.51 794.826 636.908 794.652 637.201C794.479 637.495 794.245 637.66 794 637.66C793.755 637.66 793.52 637.495 793.347 637.201C793.174 636.908 793.077 636.51 793.077 636.096V628.277H782.922C782.75 628.276 782.58 628.194 782.434 628.039C782.287 627.884 782.17 627.662 782.094 627.399C782.018 627.137 781.987 626.843 782.005 626.552C782.023 626.261 782.088 625.984 782.194 625.753L787.502 614.202H784.769C784.596 614.202 784.427 614.12 784.281 613.966C784.134 613.812 784.016 613.591 783.94 613.329C783.864 613.067 783.833 612.774 783.85 612.483C783.867 612.193 783.932 611.916 784.037 611.684L793.268 591.355C793.354 591.165 793.465 591.011 793.592 590.905C793.719 590.8 793.858 590.745 794 590.745C794.141 590.745 794.281 590.8 794.407 590.905C794.534 591.011 794.645 591.165 794.731 591.355L803.962 611.684C804.068 611.916 804.132 612.193 804.15 612.483C804.167 612.774 804.135 613.067 804.059 613.329C803.983 613.591 803.865 613.812 803.719 613.966C803.572 614.12 803.403 614.202 803.231 614.202H800.503L805.805 625.753C805.911 625.984 805.977 626.26 805.995 626.551C806.013 626.842 805.982 627.136 805.907 627.399Z" fill="#DAC9D7"/>
<path d="M805.907 627.399C805.831 627.662 805.713 627.884 805.566 628.039C805.419 628.194 805.25 628.277 805.077 628.277H794.923V636.096C794.923 636.51 794.826 636.908 794.652 637.201C794.479 637.495 794.245 637.66 794 637.66C793.755 637.66 793.52 637.495 793.347 637.201C793.174 636.908 793.077 636.51 793.077 636.096V628.277H782.922C782.75 628.276 782.58 628.194 782.434 628.039C782.287 627.884 782.17 627.662 782.094 627.399C782.018 627.137 781.987 626.843 782.005 626.552C782.023 626.261 782.088 625.984 782.194 625.753L787.502 614.202H784.769C784.596 614.202 784.427 614.12 784.281 613.966C784.134 613.812 784.016 613.591 783.94 613.329C783.864 613.067 783.833 612.774 783.85 612.483C783.867 612.193 783.932 611.916 784.037 611.684L793.268 591.355C793.354 591.165 793.465 591.011 793.592 590.905C793.719 590.8 793.858 590.745 794 590.745C794.141 590.745 794.281 590.8 794.407 590.905C794.534 591.011 794.645 591.165 794.731 591.355L803.962 611.684C804.068 611.916 804.132 612.193 804.15 612.483C804.167 612.774 804.135 613.067 804.059 613.329C803.983 613.591 803.865 613.812 803.719 613.966C803.572 614.12 803.403 614.202 803.231 614.202H800.503L805.805 625.753C805.911 625.984 805.977 626.26 805.995 626.551C806.013 626.842 805.982 627.136 805.907 627.399Z" fill="#DAC9D7"/>
<path d="M1227.83 684.316C1227.68 684.821 1227.46 685.247 1227.19 685.545C1226.91 685.842 1226.59 686 1226.27 686H1207.23V701C1207.23 701.796 1207.05 702.559 1206.72 703.121C1206.4 703.684 1205.96 704 1205.5 704C1205.04 704 1204.6 703.684 1204.28 703.121C1203.95 702.559 1203.77 701.796 1203.77 701V686H1184.73C1184.41 686 1184.09 685.842 1183.81 685.544C1183.54 685.247 1183.32 684.822 1183.18 684.317C1183.03 683.813 1182.98 683.25 1183.01 682.691C1183.04 682.133 1183.17 681.602 1183.36 681.159L1193.32 659H1188.19C1187.87 659 1187.55 658.843 1187.28 658.547C1187 658.251 1186.78 657.828 1186.64 657.325C1186.5 656.822 1186.44 656.26 1186.47 655.703C1186.5 655.145 1186.62 654.614 1186.82 654.17L1204.13 615.17C1204.29 614.806 1204.5 614.511 1204.74 614.308C1204.97 614.106 1205.23 614 1205.5 614C1205.76 614 1206.03 614.106 1206.26 614.308C1206.5 614.511 1206.71 614.806 1206.87 615.17L1224.18 654.17C1224.38 654.614 1224.5 655.145 1224.53 655.703C1224.56 656.26 1224.5 656.822 1224.36 657.325C1224.22 657.828 1224 658.251 1223.72 658.547C1223.45 658.843 1223.13 659 1222.81 659H1217.69L1227.63 681.159C1227.83 681.602 1227.96 682.132 1227.99 682.69C1228.02 683.249 1227.97 683.812 1227.83 684.316Z" fill="#EDD3F3"/>
<path d="M1350.85 687.667C1350.73 688.086 1350.55 688.439 1350.31 688.686C1350.08 688.933 1349.81 689.064 1349.54 689.064H1333.46V701.511C1333.46 702.171 1333.31 702.804 1333.03 703.271C1332.76 703.738 1332.39 704 1332 704C1331.61 704 1331.24 703.738 1330.97 703.271C1330.69 702.804 1330.54 702.171 1330.54 701.511V689.064H1314.46C1314.19 689.064 1313.92 688.933 1313.69 688.686C1313.46 688.439 1313.27 688.086 1313.15 687.668C1313.03 687.249 1312.98 686.782 1313.01 686.319C1313.04 685.855 1313.14 685.415 1313.31 685.047L1321.71 666.66H1317.38C1317.11 666.66 1316.84 666.53 1316.61 666.284C1316.38 666.038 1316.19 665.687 1316.07 665.27C1315.95 664.853 1315.9 664.386 1315.93 663.924C1315.96 663.461 1316.06 663.021 1316.23 662.652L1330.84 630.291C1330.98 629.988 1331.15 629.744 1331.35 629.575C1331.55 629.407 1331.78 629.319 1332 629.319C1332.22 629.319 1332.44 629.407 1332.65 629.575C1332.85 629.744 1333.02 629.988 1333.16 630.291L1347.77 662.652C1347.94 663.021 1348.04 663.461 1348.07 663.924C1348.1 664.386 1348.05 664.853 1347.93 665.27C1347.81 665.687 1347.62 666.038 1347.39 666.284C1347.16 666.53 1346.89 666.66 1346.62 666.66H1342.3L1350.69 685.047C1350.86 685.414 1350.96 685.855 1350.99 686.318C1351.02 686.781 1350.97 687.248 1350.85 687.667Z" fill="#DAC9D7"/>
<path d="M1350.85 687.667C1350.73 688.086 1350.55 688.439 1350.31 688.686C1350.08 688.933 1349.81 689.064 1349.54 689.064H1333.46V701.511C1333.46 702.171 1333.31 702.804 1333.03 703.271C1332.76 703.738 1332.39 704 1332 704C1331.61 704 1331.24 703.738 1330.97 703.271C1330.69 702.804 1330.54 702.171 1330.54 701.511V689.064H1314.46C1314.19 689.064 1313.92 688.933 1313.69 688.686C1313.46 688.439 1313.27 688.086 1313.15 687.668C1313.03 687.249 1312.98 686.782 1313.01 686.319C1313.04 685.855 1313.14 685.415 1313.31 685.047L1321.71 666.66H1317.38C1317.11 666.66 1316.84 666.53 1316.61 666.284C1316.38 666.038 1316.19 665.687 1316.07 665.27C1315.95 664.853 1315.9 664.386 1315.93 663.924C1315.96 663.461 1316.06 663.021 1316.23 662.652L1330.84 630.291C1330.98 629.988 1331.15 629.744 1331.35 629.575C1331.55 629.407 1331.78 629.319 1332 629.319C1332.22 629.319 1332.44 629.407 1332.65 629.575C1332.85 629.744 1333.02 629.988 1333.16 630.291L1347.77 662.652C1347.94 663.021 1348.04 663.461 1348.07 663.924C1348.1 664.386 1348.05 664.853 1347.93 665.27C1347.81 665.687 1347.62 666.038 1347.39 666.284C1347.16 666.53 1346.89 666.66 1346.62 666.66H1342.3L1350.69 685.047C1350.86 685.414 1350.96 685.855 1350.99 686.318C1351.02 686.781 1350.97 687.248 1350.85 687.667Z" fill="#DAC9D7"/>
<path d="M1251.88 690.599C1251.78 690.942 1251.63 691.232 1251.44 691.435C1251.25 691.638 1251.03 691.745 1250.81 691.745H1237.69V701.958C1237.69 702.499 1237.57 703.019 1237.34 703.402C1237.12 703.785 1236.82 704 1236.5 704C1236.18 704 1235.88 703.785 1235.66 703.402C1235.43 703.019 1235.31 702.499 1235.31 701.958V691.745H1222.19C1221.97 691.745 1221.75 691.637 1221.56 691.435C1221.37 691.232 1221.22 690.943 1221.12 690.599C1221.02 690.256 1220.98 689.872 1221.01 689.492C1221.03 689.112 1221.11 688.751 1221.25 688.449L1228.11 673.362H1224.58C1224.35 673.362 1224.14 673.255 1223.95 673.054C1223.76 672.852 1223.6 672.564 1223.51 672.222C1223.41 671.879 1223.37 671.497 1223.39 671.117C1223.41 670.737 1223.5 670.376 1223.63 670.074L1235.55 643.52C1235.67 643.273 1235.81 643.072 1235.97 642.934C1236.14 642.795 1236.32 642.724 1236.5 642.724C1236.68 642.724 1236.86 642.795 1237.03 642.934C1237.19 643.072 1237.33 643.273 1237.44 643.52L1249.37 670.074C1249.5 670.376 1249.59 670.737 1249.61 671.117C1249.63 671.497 1249.59 671.879 1249.49 672.222C1249.39 672.564 1249.24 672.852 1249.05 673.054C1248.86 673.255 1248.65 673.362 1248.42 673.362H1244.9L1251.75 688.449C1251.89 688.75 1251.97 689.112 1251.99 689.492C1252.02 689.872 1251.98 690.255 1251.88 690.599Z" fill="#DAC9D7"/>
<path d="M1251.88 690.599C1251.78 690.942 1251.63 691.232 1251.44 691.435C1251.25 691.638 1251.03 691.745 1250.81 691.745H1237.69V701.958C1237.69 702.499 1237.57 703.019 1237.34 703.402C1237.12 703.785 1236.82 704 1236.5 704C1236.18 704 1235.88 703.785 1235.66 703.402C1235.43 703.019 1235.31 702.499 1235.31 701.958V691.745H1222.19C1221.97 691.745 1221.75 691.637 1221.56 691.435C1221.37 691.232 1221.22 690.943 1221.12 690.599C1221.02 690.256 1220.98 689.872 1221.01 689.492C1221.03 689.112 1221.11 688.751 1221.25 688.449L1228.11 673.362H1224.58C1224.35 673.362 1224.14 673.255 1223.95 673.054C1223.76 672.852 1223.6 672.564 1223.51 672.222C1223.41 671.879 1223.37 671.497 1223.39 671.117C1223.41 670.737 1223.5 670.376 1223.63 670.074L1235.55 643.52C1235.67 643.273 1235.81 643.072 1235.97 642.934C1236.14 642.795 1236.32 642.724 1236.5 642.724C1236.68 642.724 1236.86 642.795 1237.03 642.934C1237.19 643.072 1237.33 643.273 1237.44 643.52L1249.37 670.074C1249.5 670.376 1249.59 670.737 1249.61 671.117C1249.63 671.497 1249.59 671.879 1249.49 672.222C1249.39 672.564 1249.24 672.852 1249.05 673.054C1248.86 673.255 1248.65 673.362 1248.42 673.362H1244.9L1251.75 688.449C1251.89 688.75 1251.97 689.112 1251.99 689.492C1252.02 689.872 1251.98 690.255 1251.88 690.599Z" fill="#DAC9D7"/>
<path d="M975.864 638.607C975.753 639 975.581 639.33 975.367 639.561C975.153 639.792 974.906 639.915 974.654 639.915H959.846V651.564C959.846 652.182 959.704 652.774 959.452 653.211C959.199 653.648 958.857 653.894 958.5 653.894C958.143 653.894 957.8 653.648 957.548 653.211C957.295 652.774 957.153 652.182 957.153 651.564V639.915H942.345C942.093 639.915 941.847 639.792 941.633 639.561C941.419 639.33 941.247 639 941.137 638.608C941.026 638.217 940.981 637.779 941.007 637.345C941.033 636.912 941.129 636.499 941.283 636.155L949.024 618.947H945.038C944.786 618.947 944.54 618.825 944.326 618.595C944.113 618.365 943.941 618.037 943.83 617.646C943.719 617.256 943.673 616.819 943.698 616.386C943.723 615.953 943.817 615.541 943.971 615.196L957.433 584.909C957.559 584.626 957.72 584.397 957.905 584.24C958.09 584.082 958.293 584 958.5 584C958.706 584 958.909 584.082 959.094 584.24C959.279 584.397 959.441 584.626 959.566 584.909L973.029 615.196C973.182 615.541 973.276 615.953 973.301 616.386C973.326 616.819 973.281 617.256 973.17 617.646C973.059 618.037 972.887 618.365 972.673 618.595C972.46 618.825 972.213 618.947 971.962 618.947H967.984L975.716 636.155C975.871 636.499 975.967 636.911 975.993 637.345C976.019 637.778 975.974 638.216 975.864 638.607Z" fill="#EDD3F3"/>
<path fill-rule="evenodd" clip-rule="evenodd" d="M716.178 649.618C716.258 649.55 716.358 649.509 716.463 649.501C716.568 649.494 716.672 649.519 716.762 649.574C718.49 650.638 719.437 651.983 719.942 653.464C720.067 653.831 720.165 654.204 720.24 654.582C720.755 653.717 721.577 653.031 722.815 652.536C722.902 652.501 722.997 652.492 723.09 652.509C723.182 652.525 723.268 652.568 723.337 652.631C723.407 652.695 723.457 652.777 723.482 652.867C723.507 652.958 723.506 653.054 723.479 653.144L723.389 653.446C722.709 655.71 722.5 656.403 722.5 658C722.5 658.133 722.447 658.26 722.354 658.354C722.26 658.447 722.133 658.5 722 658.5H716C715.867 658.5 715.74 658.447 715.646 658.354C715.553 658.26 715.5 658.133 715.5 658C715.5 656.068 715.264 654.873 714.526 652.658C714.495 652.568 714.492 652.471 714.515 652.378C714.538 652.286 714.588 652.202 714.657 652.137C714.726 652.071 714.813 652.027 714.907 652.009C715 651.991 715.097 652.001 715.186 652.036C715.883 652.315 716.413 652.687 716.813 653.126C716.679 652.117 716.418 651.129 716.036 650.186C715.997 650.088 715.99 649.981 716.015 649.879C716.041 649.777 716.098 649.685 716.178 649.618Z" fill="#C8B8CC"/>
<path fill-rule="evenodd" clip-rule="evenodd" d="M1169.18 692.618C1169.26 692.55 1169.36 692.509 1169.46 692.501C1169.57 692.494 1169.67 692.519 1169.76 692.574C1171.49 693.638 1172.44 694.983 1172.94 696.464C1173.07 696.831 1173.16 697.204 1173.24 697.582C1173.75 696.717 1174.58 696.031 1175.81 695.536C1175.9 695.501 1176 695.492 1176.09 695.509C1176.18 695.525 1176.27 695.568 1176.34 695.631C1176.41 695.695 1176.46 695.777 1176.48 695.867C1176.51 695.958 1176.51 696.054 1176.48 696.144L1176.39 696.446C1175.71 698.71 1175.5 699.403 1175.5 701C1175.5 701.133 1175.45 701.26 1175.35 701.354C1175.26 701.447 1175.13 701.5 1175 701.5H1169C1168.87 701.5 1168.74 701.447 1168.65 701.354C1168.55 701.26 1168.5 701.133 1168.5 701C1168.5 699.068 1168.26 697.873 1167.53 695.658C1167.5 695.568 1167.49 695.471 1167.52 695.378C1167.54 695.286 1167.59 695.202 1167.66 695.137C1167.73 695.071 1167.81 695.027 1167.91 695.009C1168 694.991 1168.1 695.001 1168.19 695.036C1168.88 695.315 1169.41 695.687 1169.81 696.126C1169.68 695.117 1169.42 694.129 1169.04 693.186C1169 693.088 1168.99 692.981 1169.02 692.879C1169.04 692.777 1169.1 692.685 1169.18 692.618Z" fill="#C8B8CC"/>
<path fill-rule="evenodd" clip-rule="evenodd" d="M22.178 764.618C22.2584 764.55 22.3581 764.509 22.463 764.501C22.5678 764.494 22.6725 764.519 22.762 764.574C24.4895 765.638 25.437 766.983 25.942 768.464C26.067 768.831 26.1645 769.204 26.24 769.582C26.7545 768.717 27.5765 768.031 28.8145 767.536C28.9018 767.501 28.9972 767.492 29.0896 767.509C29.1821 767.525 29.2679 767.568 29.3373 767.631C29.4067 767.695 29.4568 767.777 29.4818 767.867C29.5069 767.958 29.5059 768.054 29.479 768.144L29.3885 768.446C28.7085 770.71 28.5 771.403 28.5 773C28.5 773.133 28.4473 773.26 28.3536 773.354C28.2598 773.447 28.1326 773.5 28 773.5H22C21.8674 773.5 21.7402 773.447 21.6465 773.354C21.5527 773.26 21.5 773.133 21.5 773C21.5 771.068 21.264 769.873 20.5255 767.658C20.4955 767.568 20.4919 767.471 20.5152 767.378C20.5385 767.286 20.5877 767.202 20.6571 767.137C20.7264 767.071 20.813 767.027 20.9066 767.009C21.0003 766.991 21.097 767.001 21.1855 767.036C21.883 767.315 22.413 767.687 22.813 768.126C22.6792 767.117 22.4181 766.129 22.036 765.186C21.9969 765.088 21.9895 764.981 22.015 764.879C22.0405 764.777 22.0975 764.685 22.178 764.618Z" fill="#C8B8CC"/>
<path fill-rule="evenodd" clip-rule="evenodd" d="M950.178 655.618C950.258 655.55 950.358 655.509 950.463 655.501C950.568 655.494 950.672 655.519 950.762 655.574C952.49 656.638 953.437 657.983 953.942 659.464C954.067 659.831 954.165 660.204 954.24 660.582C954.755 659.717 955.577 659.031 956.815 658.536C956.902 658.501 956.997 658.492 957.09 658.509C957.182 658.525 957.268 658.568 957.337 658.631C957.407 658.695 957.457 658.777 957.482 658.867C957.507 658.958 957.506 659.054 957.479 659.144L957.389 659.446C956.709 661.71 956.5 662.403 956.5 664C956.5 664.133 956.447 664.26 956.354 664.354C956.26 664.447 956.133 664.5 956 664.5H950C949.867 664.5 949.74 664.447 949.646 664.354C949.553 664.26 949.5 664.133 949.5 664C949.5 662.068 949.264 660.873 948.526 658.658C948.495 658.568 948.492 658.471 948.515 658.378C948.538 658.286 948.588 658.202 948.657 658.137C948.726 658.071 948.813 658.027 948.907 658.009C949 657.991 949.097 658.001 949.186 658.036C949.883 658.315 950.413 658.687 950.813 659.126C950.679 658.117 950.418 657.129 950.036 656.186C949.997 656.088 949.99 655.981 950.015 655.879C950.041 655.777 950.098 655.685 950.178 655.618Z" fill="#C8B8CC"/>
<path fill-rule="evenodd" clip-rule="evenodd" d="M839.178 625.618C839.258 625.55 839.358 625.509 839.463 625.501C839.568 625.494 839.672 625.519 839.762 625.574C841.49 626.638 842.437 627.983 842.942 629.464C843.067 629.831 843.165 630.204 843.24 630.582C843.755 629.717 844.577 629.031 845.815 628.536C845.902 628.501 845.997 628.492 846.09 628.509C846.182 628.525 846.268 628.568 846.337 628.631C846.407 628.695 846.457 628.777 846.482 628.867C846.507 628.958 846.506 629.054 846.479 629.144L846.389 629.446C845.709 631.71 845.5 632.403 845.5 634C845.5 634.133 845.447 634.26 845.354 634.354C845.26 634.447 845.133 634.5 845 634.5H839C838.867 634.5 838.74 634.447 838.646 634.354C838.553 634.26 838.5 634.133 838.5 634C838.5 632.068 838.264 630.873 837.526 628.658C837.495 628.568 837.492 628.471 837.515 628.378C837.538 628.286 837.588 628.202 837.657 628.137C837.726 628.071 837.813 628.027 837.907 628.009C838 627.991 838.097 628.001 838.186 628.036C838.883 628.315 839.413 628.687 839.813 629.126C839.679 628.117 839.418 627.129 839.036 626.186C838.997 626.088 838.99 625.981 839.015 625.879C839.041 625.777 839.098 625.685 839.178 625.618Z" fill="#C8B8CC"/>
<path fill-rule="evenodd" clip-rule="evenodd" d="M1392.18 711.618C1392.26 711.55 1392.36 711.509 1392.46 711.501C1392.57 711.494 1392.67 711.519 1392.76 711.574C1394.49 712.638 1395.44 713.983 1395.94 715.464C1396.07 715.831 1396.16 716.204 1396.24 716.582C1396.75 715.717 1397.58 715.031 1398.81 714.536C1398.9 714.501 1399 714.492 1399.09 714.509C1399.18 714.525 1399.27 714.568 1399.34 714.631C1399.41 714.695 1399.46 714.777 1399.48 714.867C1399.51 714.958 1399.51 715.054 1399.48 715.144L1399.39 715.446C1398.71 717.71 1398.5 718.403 1398.5 720C1398.5 720.133 1398.45 720.26 1398.35 720.354C1398.26 720.447 1398.13 720.5 1398 720.5H1392C1391.87 720.5 1391.74 720.447 1391.65 720.354C1391.55 720.26 1391.5 720.133 1391.5 720C1391.5 718.068 1391.26 716.873 1390.53 714.658C1390.5 714.568 1390.49 714.471 1390.52 714.378C1390.54 714.286 1390.59 714.202 1390.66 714.137C1390.73 714.071 1390.81 714.027 1390.91 714.009C1391 713.991 1391.1 714.001 1391.19 714.036C1391.88 714.315 1392.41 714.687 1392.81 715.126C1392.68 714.117 1392.42 713.129 1392.04 712.186C1392 712.088 1391.99 711.981 1392.02 711.879C1392.04 711.777 1392.1 711.685 1392.18 711.618Z" fill="#DAC9D6"/>
</g>
<defs>
<clipPath id="clip0_278_937">
<rect width="1440" height="900" fill="white"/>
</clipPath>
</defs>
</svg>
