<svg width="1920" height="1080" viewBox="0 0 1920 1080" fill="none" xmlns="http://www.w3.org/2000/svg">
<g clip-path="url(#clip0_278_937)">
<rect width="1920" height="1080" fill="#FFF7FF"/>
<path fill-rule="evenodd" clip-rule="evenodd" d="M1372.44 854.259C1384.59 855.657 1395.55 847.108 1396.92 835.165C1398.3 823.222 1389.56 812.407 1377.41 811.009C1371.15 810.289 1365.2 812.212 1360.71 815.882C1357.01 811.271 1351.41 808.019 1344.88 807.268C1333.27 805.933 1322.74 812.954 1320 823.324C1318.07 821.974 1315.76 821.066 1313.22 820.774C1306.74 820.028 1300.78 823.547 1298.38 829.032C1291.03 828.824 1284.64 834.047 1283.82 841.208C1283.78 841.501 1283.76 841.792 1283.75 842.082C1280.66 844.266 1278.5 847.634 1278.05 851.596C1277.92 852.763 1277.94 853.913 1278.1 855.028C1276.27 856.281 1275 858.24 1274.73 860.551C1274.51 862.486 1275.03 864.342 1276.09 865.855C1274.77 866.773 1273.86 868.15 1273.67 869.765C1273.3 872.984 1275.95 875.933 1279.58 876.351C1283.22 876.769 1286.46 874.498 1286.83 871.279C1286.93 870.402 1286.81 869.546 1286.51 868.755C1287.59 868.284 1288.56 867.593 1289.33 866.733C1289.8 866.833 1290.28 866.911 1290.76 866.967C1297.29 867.718 1303.29 864.142 1305.65 858.588C1307.89 859.936 1310.5 860.853 1313.34 861.18C1316.96 861.597 1320.44 860.993 1323.4 859.621C1324.58 860.512 1326.02 861.115 1327.61 861.298C1331.99 861.801 1335.94 858.973 1336.71 854.903C1338.54 855.738 1340.53 856.305 1342.64 856.548C1349.81 857.373 1356.49 854.238 1360.31 848.937C1363.59 851.79 1367.76 853.722 1372.44 854.259ZM1457.48 838.673C1456.61 846.254 1449.5 851.664 1441.61 850.756C1433.72 849.848 1428.03 842.967 1428.9 835.385C1429.77 827.804 1436.87 822.394 1444.77 823.302C1452.66 824.21 1458.35 831.092 1457.48 838.673Z" fill="#DAC8D7"/>
<path d="M886 792.887C1100 753.769 1313 872.879 1313 872.879V1057.39H485.5C485.5 1057.39 672 832.005 886 792.887Z" fill="#E7D5F5"/>
<path d="M1350 850C1660 797.083 1920 932.774 1920 932.774V1079H908C908 1079 1146.74 884.697 1350 850Z" fill="#FAE4F5"/>
<path d="M228.5 915.129C122.169 891.22 -46 965.505 -46 965.505V1058.39H442C442 1058.39 326.516 937.168 228.5 915.129Z" fill="#EAD7EC"/>
<path d="M1047.74 789.254C1047.53 789.931 1047.2 790.501 1046.8 790.9C1046.39 791.299 1045.92 791.511 1045.44 791.511H1017.23V811.617C1017.23 812.684 1016.96 813.706 1016.48 814.46C1016 815.215 1015.35 815.638 1014.67 815.638C1013.99 815.638 1013.33 815.215 1012.85 814.46C1012.37 813.706 1012.1 812.684 1012.1 811.617V791.511H983.896C983.416 791.51 982.946 791.299 982.539 790.9C982.133 790.501 981.805 789.931 981.594 789.255C981.384 788.579 981.298 787.824 981.348 787.076C981.397 786.327 981.579 785.615 981.874 785.021L996.618 755.319H989.025C988.546 755.319 988.076 755.109 987.67 754.712C987.263 754.315 986.935 753.748 986.724 753.074C986.512 752.4 986.425 751.647 986.473 750.899C986.52 750.152 986.7 749.44 986.993 748.845L1012.63 696.569C1012.87 696.081 1013.18 695.685 1013.53 695.413C1013.89 695.141 1014.27 695 1014.67 695C1015.06 695 1015.45 695.141 1015.8 695.413C1016.15 695.685 1016.46 696.081 1016.7 696.569L1042.34 748.845C1042.63 749.44 1042.81 750.152 1042.86 750.899C1042.91 751.647 1042.82 752.4 1042.61 753.074C1042.4 753.748 1042.07 754.315 1041.66 754.712C1041.26 755.109 1040.79 755.319 1040.31 755.319H1032.73L1047.46 785.021C1047.75 785.615 1047.94 786.326 1047.99 787.074C1048.04 787.822 1047.95 788.578 1047.74 789.254Z" fill="#EDD3F3"/>
<path d="M149.074 928.254C148.863 928.931 148.535 929.501 148.128 929.9C147.72 930.299 147.249 930.511 146.769 930.511H118.563V950.617C118.563 951.684 118.293 952.706 117.812 953.46C117.331 954.215 116.679 954.638 115.999 954.638C115.319 954.638 114.666 954.215 114.185 953.46C113.705 952.706 113.434 951.684 113.434 950.617V930.511H85.2283C84.7485 930.51 84.2784 930.299 83.8715 929.9C83.4646 929.501 83.1372 928.931 82.9265 928.255C82.7158 927.579 82.6303 926.824 82.6796 926.076C82.729 925.327 82.9113 924.615 83.2058 924.021L97.9499 894.319H90.3567C89.8777 894.319 89.4083 894.109 89.0017 893.712C88.595 893.315 88.2674 892.748 88.0558 892.074C87.8443 891.4 87.7574 890.647 87.8049 889.899C87.8524 889.152 88.0324 888.44 88.3246 887.845L113.967 835.569C114.206 835.081 114.514 834.685 114.866 834.413C115.218 834.141 115.606 834 115.999 834C116.391 834 116.779 834.141 117.131 834.413C117.483 834.685 117.791 835.081 118.031 835.569L143.673 887.845C143.965 888.44 144.145 889.152 144.192 889.899C144.24 890.647 144.153 891.4 143.941 892.074C143.73 892.748 143.402 893.315 142.996 893.712C142.589 894.109 142.12 894.319 141.641 894.319H134.063L148.792 924.021C149.086 924.615 149.269 925.326 149.319 926.074C149.369 926.822 149.284 927.578 149.074 928.254Z" fill="#EDD3F3"/>
<path d="M868.813 793.222C868.662 793.712 868.426 794.125 868.132 794.414C867.839 794.702 867.5 794.855 867.154 794.855H846.846V809.409C846.846 810.18 846.651 810.921 846.305 811.467C845.959 812.012 845.489 812.319 844.999 812.319C844.51 812.319 844.04 812.012 843.694 811.467C843.348 810.921 843.153 810.18 843.153 809.409V794.855H822.845C822.499 794.855 822.161 794.702 821.868 794.413C821.575 794.125 821.339 793.712 821.188 793.223C821.036 792.734 820.974 792.187 821.01 791.645C821.045 791.104 821.177 790.588 821.389 790.158L832.004 768.66H826.537C826.192 768.66 825.854 768.508 825.562 768.22C825.269 767.933 825.033 767.522 824.881 767.035C824.728 766.547 824.666 766.002 824.7 765.461C824.734 764.92 824.864 764.404 825.074 763.974L843.536 726.136C843.709 725.782 843.93 725.496 844.184 725.299C844.438 725.102 844.717 725 844.999 725C845.282 725 845.561 725.102 845.815 725.299C846.069 725.496 846.29 725.782 846.463 726.136L864.925 763.974C865.135 764.404 865.265 764.92 865.299 765.461C865.333 766.002 865.271 766.547 865.118 767.035C864.966 767.522 864.73 767.933 864.437 768.22C864.145 768.508 863.807 768.66 863.462 768.66H858.006L868.61 790.158C868.823 790.588 868.954 791.103 868.99 791.644C869.026 792.186 868.965 792.732 868.813 793.222Z" fill="#EDD3F3"/>
<path d="M1870.74 899.501C1870.53 900.178 1870.2 900.748 1869.8 901.147C1869.39 901.546 1868.92 901.758 1868.44 901.758H1840.23V921.864C1840.23 922.931 1839.96 923.953 1839.48 924.708C1839 925.462 1838.35 925.885 1837.67 925.885C1836.99 925.885 1836.33 925.462 1835.85 924.708C1835.37 923.953 1835.1 922.931 1835.1 921.864V901.758H1806.9C1806.42 901.757 1805.95 901.546 1805.54 901.147C1805.13 900.748 1804.81 900.178 1804.59 899.502C1804.38 898.826 1804.3 898.071 1804.35 897.323C1804.4 896.574 1804.58 895.863 1804.87 895.268L1819.62 865.566H1812.02C1811.55 865.567 1811.08 865.356 1810.67 864.959C1810.26 864.563 1809.94 863.995 1809.72 863.321C1809.51 862.647 1809.43 861.894 1809.47 861.146C1809.52 860.399 1809.7 859.687 1809.99 859.092L1835.63 806.816C1835.87 806.328 1836.18 805.933 1836.53 805.661C1836.89 805.389 1837.27 805.247 1837.67 805.247C1838.06 805.247 1838.45 805.389 1838.8 805.661C1839.15 805.933 1839.46 806.328 1839.7 806.816L1865.34 859.092C1865.63 859.687 1865.81 860.399 1865.86 861.146C1865.91 861.894 1865.82 862.647 1865.61 863.321C1865.4 863.995 1865.07 864.563 1864.66 864.959C1864.26 865.356 1863.79 865.567 1863.31 865.566H1855.73L1870.46 895.268C1870.75 895.862 1870.94 896.573 1870.99 897.321C1871.04 898.07 1870.95 898.825 1870.74 899.501Z" fill="#EDD3F3"/>
<path d="M1253.17 827.08C1253.04 827.492 1252.84 827.84 1252.59 828.083C1252.33 828.327 1252.04 828.456 1251.74 828.455H1234.26V840.711C1234.26 841.361 1234.09 841.984 1233.79 842.444C1233.49 842.904 1233.09 843.162 1232.67 843.162C1232.24 843.162 1231.84 842.904 1231.54 842.444C1231.24 841.984 1231.08 841.361 1231.08 840.711V828.455H1213.59C1213.29 828.455 1213 828.326 1212.75 828.083C1212.5 827.84 1212.29 827.493 1212.16 827.081C1212.03 826.669 1211.98 826.208 1212.01 825.752C1212.04 825.296 1212.15 824.862 1212.33 824.5L1221.48 806.396H1216.77C1216.47 806.396 1216.18 806.268 1215.93 806.026C1215.68 805.784 1215.47 805.438 1215.34 805.027C1215.21 804.617 1215.16 804.157 1215.19 803.702C1215.22 803.246 1215.33 802.813 1215.51 802.45L1231.41 770.586C1231.55 770.289 1231.75 770.048 1231.96 769.882C1232.18 769.716 1232.42 769.63 1232.67 769.63C1232.91 769.63 1233.15 769.716 1233.37 769.882C1233.59 770.048 1233.78 770.289 1233.93 770.586L1249.82 802.45C1250.01 802.813 1250.12 803.246 1250.15 803.702C1250.18 804.157 1250.12 804.617 1249.99 805.027C1249.86 805.438 1249.66 805.784 1249.4 806.026C1249.15 806.268 1248.86 806.396 1248.56 806.396H1243.87L1253 824.5C1253.18 824.862 1253.29 825.295 1253.32 825.751C1253.36 826.207 1253.3 826.668 1253.17 827.08Z" fill="#DAC9D7"/>
<path d="M1253.17 827.08C1253.04 827.492 1252.84 827.84 1252.59 828.083C1252.33 828.327 1252.04 828.456 1251.74 828.455H1234.26V840.711C1234.26 841.361 1234.09 841.984 1233.79 842.444C1233.49 842.904 1233.09 843.162 1232.67 843.162C1232.24 843.162 1231.84 842.904 1231.54 842.444C1231.24 841.984 1231.08 841.361 1231.08 840.711V828.455H1213.59C1213.29 828.455 1213 828.326 1212.75 828.083C1212.5 827.84 1212.29 827.493 1212.16 827.081C1212.03 826.669 1211.98 826.208 1212.01 825.752C1212.04 825.296 1212.15 824.862 1212.33 824.5L1221.48 806.396H1216.77C1216.47 806.396 1216.18 806.268 1215.93 806.026C1215.68 805.784 1215.47 805.438 1215.34 805.027C1215.21 804.617 1215.16 804.157 1215.19 803.702C1215.22 803.246 1215.33 802.813 1215.51 802.45L1231.41 770.586C1231.55 770.289 1231.75 770.048 1231.96 769.882C1232.18 769.716 1232.42 769.63 1232.67 769.63C1232.91 769.63 1233.15 769.716 1233.37 769.882C1233.59 770.048 1233.78 770.289 1233.93 770.586L1249.82 802.45C1250.01 802.813 1250.12 803.246 1250.15 803.702C1250.18 804.157 1250.12 804.617 1249.99 805.027C1249.86 805.438 1249.66 805.784 1249.4 806.026C1249.15 806.268 1248.86 806.396 1248.56 806.396H1243.87L1253 824.5C1253.18 824.862 1253.29 825.295 1253.32 825.751C1253.36 826.207 1253.3 826.668 1253.17 827.08Z" fill="#DAC9D7"/>
<path d="M1081.17 796.109C1081.04 796.522 1080.84 796.869 1080.59 797.113C1080.33 797.356 1080.04 797.485 1079.74 797.485H1062.26V809.74C1062.26 810.39 1062.09 811.014 1061.79 811.473C1061.49 811.933 1061.09 812.191 1060.67 812.191C1060.24 812.191 1059.84 811.933 1059.54 811.473C1059.24 811.014 1059.08 810.39 1059.08 809.74V797.485H1041.59C1041.29 797.484 1041 797.355 1040.75 797.112C1040.5 796.869 1040.29 796.522 1040.16 796.11C1040.03 795.698 1039.98 795.238 1040.01 794.781C1040.04 794.325 1040.15 793.891 1040.33 793.529L1049.48 775.425H1044.77C1044.47 775.425 1044.18 775.297 1043.93 775.055C1043.68 774.813 1043.47 774.467 1043.34 774.057C1043.21 773.646 1043.16 773.187 1043.19 772.731C1043.22 772.276 1043.33 771.842 1043.51 771.479L1059.41 739.615C1059.55 739.318 1059.75 739.077 1059.96 738.911C1060.18 738.745 1060.42 738.659 1060.67 738.659C1060.91 738.659 1061.15 738.745 1061.37 738.911C1061.59 739.077 1061.78 739.318 1061.93 739.615L1077.82 771.479C1078.01 771.842 1078.12 772.276 1078.15 772.731C1078.18 773.187 1078.12 773.646 1077.99 774.057C1077.86 774.467 1077.66 774.813 1077.4 775.055C1077.15 775.297 1076.86 775.425 1076.56 775.425H1071.87L1081 793.529C1081.18 793.891 1081.29 794.325 1081.32 794.781C1081.36 795.237 1081.3 795.697 1081.17 796.109Z" fill="#DAC9D7"/>
<path d="M1081.17 796.109C1081.04 796.522 1080.84 796.869 1080.59 797.113C1080.33 797.356 1080.04 797.485 1079.74 797.485H1062.26V809.74C1062.26 810.39 1062.09 811.014 1061.79 811.473C1061.49 811.933 1061.09 812.191 1060.67 812.191C1060.24 812.191 1059.84 811.933 1059.54 811.473C1059.24 811.014 1059.08 810.39 1059.08 809.74V797.485H1041.59C1041.29 797.484 1041 797.355 1040.75 797.112C1040.5 796.869 1040.29 796.522 1040.16 796.11C1040.03 795.698 1039.98 795.238 1040.01 794.781C1040.04 794.325 1040.15 793.891 1040.33 793.529L1049.48 775.425H1044.77C1044.47 775.425 1044.18 775.297 1043.93 775.055C1043.68 774.813 1043.47 774.467 1043.34 774.057C1043.21 773.646 1043.16 773.187 1043.19 772.731C1043.22 772.276 1043.33 771.842 1043.51 771.479L1059.41 739.615C1059.55 739.318 1059.75 739.077 1059.96 738.911C1060.18 738.745 1060.42 738.659 1060.67 738.659C1060.91 738.659 1061.15 738.745 1061.37 738.911C1061.59 739.077 1061.78 739.318 1061.93 739.615L1077.82 771.479C1078.01 771.842 1078.12 772.276 1078.15 772.731C1078.18 773.187 1078.12 773.646 1077.99 774.057C1077.86 774.467 1077.66 774.813 1077.4 775.055C1077.15 775.297 1076.86 775.425 1076.56 775.425H1071.87L1081 793.529C1081.18 793.891 1081.29 794.325 1081.32 794.781C1081.36 795.237 1081.3 795.697 1081.17 796.109Z" fill="#DAC9D7"/>
<path d="M82.5067 941.85C82.376 942.263 82.1728 942.611 81.9201 942.854C81.6675 943.097 81.3757 943.226 81.0778 943.226H63.59V955.481C63.59 956.131 63.4225 956.755 63.1244 957.214C62.8262 957.674 62.4219 957.932 62.0002 957.932C61.5786 957.932 61.1742 957.674 60.8761 957.214C60.5779 956.755 60.4104 956.131 60.4104 955.481V943.226H42.9226C42.6251 943.226 42.3337 943.097 42.0814 942.854C41.8291 942.611 41.6261 942.263 41.4955 941.851C41.3648 941.439 41.3118 940.979 41.3424 940.523C41.373 940.066 41.4861 939.633 41.6686 939.271L50.81 921.167H46.1022C45.8052 921.167 45.5142 921.038 45.2621 920.796C45.01 920.555 44.8068 920.209 44.6757 919.798C44.5445 919.387 44.4906 918.928 44.5201 918.472C44.5495 918.017 44.6611 917.583 44.8423 917.22L60.7403 885.357C60.8888 885.059 61.0796 884.818 61.2981 884.652C61.5165 884.487 61.7567 884.4 62.0002 884.4C62.2437 884.4 62.4839 884.487 62.7024 884.652C62.9208 884.818 63.1116 885.059 63.2601 885.357L79.1582 917.22C79.3393 917.583 79.4509 918.017 79.4804 918.472C79.5098 918.928 79.4559 919.387 79.3248 919.798C79.1936 920.209 78.9905 920.555 78.7383 920.796C78.4862 921.038 78.1952 921.167 77.8982 921.167H73.2004L82.3318 939.271C82.5145 939.632 82.6278 940.066 82.6587 940.522C82.6896 940.978 82.6369 941.438 82.5067 941.85Z" fill="#DAC9D7"/>
<path d="M82.5067 941.85C82.376 942.263 82.1728 942.611 81.9201 942.854C81.6675 943.097 81.3757 943.226 81.0778 943.226H63.59V955.481C63.59 956.131 63.4225 956.755 63.1244 957.214C62.8262 957.674 62.4219 957.932 62.0002 957.932C61.5786 957.932 61.1742 957.674 60.8761 957.214C60.5779 956.755 60.4104 956.131 60.4104 955.481V943.226H42.9226C42.6251 943.226 42.3337 943.097 42.0814 942.854C41.8291 942.611 41.6261 942.263 41.4955 941.851C41.3648 941.439 41.3118 940.979 41.3424 940.523C41.373 940.066 41.4861 939.633 41.6686 939.271L50.81 921.167H46.1022C45.8052 921.167 45.5142 921.038 45.2621 920.796C45.01 920.555 44.8068 920.209 44.6757 919.798C44.5445 919.387 44.4906 918.928 44.5201 918.472C44.5495 918.017 44.6611 917.583 44.8423 917.22L60.7403 885.357C60.8888 885.059 61.0796 884.818 61.2981 884.652C61.5165 884.487 61.7567 884.4 62.0002 884.4C62.2437 884.4 62.4839 884.487 62.7024 884.652C62.9208 884.818 63.1116 885.059 63.2601 885.357L79.1582 917.22C79.3393 917.583 79.4509 918.017 79.4804 918.472C79.5098 918.928 79.4559 919.387 79.3248 919.798C79.1936 920.209 78.9905 920.555 78.7383 920.796C78.4862 921.038 78.1952 921.167 77.8982 921.167H73.2004L82.3318 939.271C82.5145 939.632 82.6278 940.066 82.6587 940.522C82.6896 940.978 82.6369 941.438 82.5067 941.85Z" fill="#DAC9D7"/>
<path d="M821.173 815.45C821.042 815.863 820.839 816.21 820.586 816.454C820.334 816.697 820.042 816.826 819.744 816.826H802.256V829.081C802.256 829.731 802.089 830.354 801.79 830.814C801.492 831.274 801.088 831.532 800.666 831.532C800.245 831.532 799.84 831.274 799.542 830.814C799.244 830.354 799.076 829.731 799.076 829.081V816.826H781.589C781.291 816.825 781 816.696 780.747 816.453C780.495 816.21 780.292 815.863 780.161 815.451C780.031 815.039 779.978 814.579 780.008 814.122C780.039 813.666 780.152 813.232 780.335 812.87L789.476 794.766H784.768C784.471 794.766 784.18 794.638 783.928 794.396C783.676 794.154 783.473 793.808 783.342 793.398C783.211 792.987 783.157 792.528 783.186 792.072C783.216 791.616 783.327 791.183 783.508 790.82L799.406 758.956C799.555 758.659 799.746 758.418 799.964 758.252C800.183 758.086 800.423 758 800.666 758C800.91 758 801.15 758.086 801.368 758.252C801.587 758.418 801.778 758.659 801.926 758.956L817.824 790.82C818.005 791.183 818.117 791.616 818.146 792.072C818.176 792.528 818.122 792.987 817.991 793.398C817.86 793.808 817.656 794.154 817.404 794.396C817.152 794.638 816.861 794.766 816.564 794.766H811.866L820.998 812.87C821.181 813.232 821.294 813.665 821.325 814.121C821.356 814.578 821.303 815.038 821.173 815.45Z" fill="#DAC9D7"/>
<path d="M821.173 815.45C821.042 815.863 820.839 816.21 820.586 816.454C820.334 816.697 820.042 816.826 819.744 816.826H802.256V829.081C802.256 829.731 802.089 830.354 801.79 830.814C801.492 831.274 801.088 831.532 800.666 831.532C800.245 831.532 799.84 831.274 799.542 830.814C799.244 830.354 799.076 829.731 799.076 829.081V816.826H781.589C781.291 816.825 781 816.696 780.747 816.453C780.495 816.21 780.292 815.863 780.161 815.451C780.031 815.039 779.978 814.579 780.008 814.122C780.039 813.666 780.152 813.232 780.335 812.87L789.476 794.766H784.768C784.471 794.766 784.18 794.638 783.928 794.396C783.676 794.154 783.473 793.808 783.342 793.398C783.211 792.987 783.157 792.528 783.186 792.072C783.216 791.616 783.327 791.183 783.508 790.82L799.406 758.956C799.555 758.659 799.746 758.418 799.964 758.252C800.183 758.086 800.423 758 800.666 758C800.91 758 801.15 758.086 801.368 758.252C801.587 758.418 801.778 758.659 801.926 758.956L817.824 790.82C818.005 791.183 818.117 791.616 818.146 792.072C818.176 792.528 818.122 792.987 817.991 793.398C817.86 793.808 817.656 794.154 817.404 794.396C817.152 794.638 816.861 794.766 816.564 794.766H811.866L820.998 812.87C821.181 813.232 821.294 813.665 821.325 814.121C821.356 814.578 821.303 815.038 821.173 815.45Z" fill="#DAC9D7"/>
<path d="M937.907 796.213C937.831 796.452 937.713 796.653 937.566 796.793C937.419 796.934 937.25 797.009 937.077 797.009H926.923V804.094C926.923 804.469 926.826 804.83 926.652 805.096C926.479 805.361 926.245 805.511 926 805.511C925.755 805.511 925.52 805.361 925.347 805.096C925.174 804.83 925.077 804.469 925.077 804.094V797.009H914.922C914.75 797.008 914.58 796.934 914.434 796.793C914.287 796.653 914.17 796.452 914.094 796.214C914.018 795.976 913.987 795.709 914.005 795.446C914.023 795.182 914.088 794.931 914.194 794.722L919.502 784.255H916.769C916.596 784.255 916.427 784.181 916.281 784.041C916.134 783.902 916.016 783.702 915.94 783.464C915.864 783.227 915.833 782.961 915.85 782.698C915.867 782.435 915.932 782.184 916.037 781.974L925.268 763.553C925.354 763.381 925.465 763.242 925.592 763.146C925.719 763.05 925.858 763 926 763C926.141 763 926.281 763.05 926.407 763.146C926.534 763.242 926.645 763.381 926.731 763.553L935.962 781.974C936.068 782.184 936.132 782.435 936.15 782.698C936.167 782.961 936.135 783.227 936.059 783.464C935.983 783.702 935.865 783.902 935.719 784.041C935.572 784.181 935.403 784.255 935.231 784.255H932.503L937.805 794.722C937.911 794.931 937.977 795.182 937.995 795.445C938.013 795.709 937.982 795.975 937.907 796.213Z" fill="#DAC9D7"/>
<path d="M937.907 796.213C937.831 796.452 937.713 796.653 937.566 796.793C937.419 796.934 937.25 797.009 937.077 797.009H926.923V804.094C926.923 804.469 926.826 804.83 926.652 805.096C926.479 805.361 926.245 805.511 926 805.511C925.755 805.511 925.52 805.361 925.347 805.096C925.174 804.83 925.077 804.469 925.077 804.094V797.009H914.922C914.75 797.008 914.58 796.934 914.434 796.793C914.287 796.653 914.17 796.452 914.094 796.214C914.018 795.976 913.987 795.709 914.005 795.446C914.023 795.182 914.088 794.931 914.194 794.722L919.502 784.255H916.769C916.596 784.255 916.427 784.181 916.281 784.041C916.134 783.902 916.016 783.702 915.94 783.464C915.864 783.227 915.833 782.961 915.85 782.698C915.867 782.435 915.932 782.184 916.037 781.974L925.268 763.553C925.354 763.381 925.465 763.242 925.592 763.146C925.719 763.05 925.858 763 926 763C926.141 763 926.281 763.05 926.407 763.146C926.534 763.242 926.645 763.381 926.731 763.553L935.962 781.974C936.068 782.184 936.132 782.435 936.15 782.698C936.167 782.961 936.135 783.227 936.059 783.464C935.983 783.702 935.865 783.902 935.719 784.041C935.572 784.181 935.403 784.255 935.231 784.255H932.503L937.805 794.722C937.911 794.931 937.977 795.182 937.995 795.445C938.013 795.709 937.982 795.975 937.907 796.213Z" fill="#DAC9D7"/>
<path d="M991.876 799.879C991.774 800.195 991.617 800.461 991.422 800.647C991.226 800.833 991 800.932 990.769 800.932H977.23V810.315C977.23 810.813 977.101 811.29 976.87 811.642C976.639 811.994 976.326 812.191 976 812.191C975.673 812.191 975.36 811.994 975.129 811.642C974.899 811.29 974.769 810.813 974.769 810.315V800.932H961.23C961 800.932 960.774 800.833 960.579 800.647C960.383 800.461 960.226 800.195 960.125 799.879C960.024 799.564 959.983 799.211 960.007 798.862C960.03 798.513 960.118 798.181 960.259 797.904L967.336 784.043H963.692C963.462 784.043 963.236 783.945 963.041 783.759C962.846 783.574 962.689 783.309 962.587 782.995C962.486 782.68 962.444 782.329 962.467 781.98C962.489 781.631 962.576 781.299 962.716 781.021L975.024 756.626C975.139 756.398 975.287 756.213 975.456 756.087C975.625 755.96 975.811 755.894 976 755.894C976.188 755.894 976.374 755.96 976.543 756.087C976.712 756.213 976.86 756.398 976.975 756.626L989.283 781.021C989.423 781.299 989.51 781.631 989.533 781.98C989.555 782.329 989.514 782.68 989.412 782.995C989.311 783.309 989.153 783.574 988.958 783.759C988.763 783.945 988.538 784.043 988.308 784.043H984.671L991.74 797.904C991.882 798.181 991.969 798.512 991.993 798.862C992.017 799.211 991.976 799.563 991.876 799.879Z" fill="#DAC9D7"/>
<path d="M991.876 799.879C991.774 800.195 991.617 800.461 991.422 800.647C991.226 800.833 991 800.932 990.769 800.932H977.23V810.315C977.23 810.813 977.101 811.29 976.87 811.642C976.639 811.994 976.326 812.191 976 812.191C975.673 812.191 975.36 811.994 975.129 811.642C974.899 811.29 974.769 810.813 974.769 810.315V800.932H961.23C961 800.932 960.774 800.833 960.579 800.647C960.383 800.461 960.226 800.195 960.125 799.879C960.024 799.564 959.983 799.211 960.007 798.862C960.03 798.513 960.118 798.181 960.259 797.904L967.336 784.043H963.692C963.462 784.043 963.236 783.945 963.041 783.759C962.846 783.574 962.689 783.309 962.587 782.995C962.486 782.68 962.444 782.329 962.467 781.98C962.489 781.631 962.576 781.299 962.716 781.021L975.024 756.626C975.139 756.398 975.287 756.213 975.456 756.087C975.625 755.96 975.811 755.894 976 755.894C976.188 755.894 976.374 755.96 976.543 756.087C976.712 756.213 976.86 756.398 976.975 756.626L989.283 781.021C989.423 781.299 989.51 781.631 989.533 781.98C989.555 782.329 989.514 782.68 989.412 782.995C989.311 783.309 989.153 783.574 988.958 783.759C988.763 783.945 988.538 784.043 988.308 784.043H984.671L991.74 797.904C991.882 798.181 991.969 798.512 991.993 798.862C992.017 799.211 991.976 799.563 991.876 799.879Z" fill="#DAC9D7"/>
<path d="M1640.1 886.179C1639.91 886.785 1639.62 887.296 1639.25 887.653C1638.88 888.011 1638.46 888.2 1638.03 888.2H1612.64V906.2C1612.64 907.155 1612.4 908.07 1611.97 908.745C1611.53 909.421 1610.95 909.8 1610.33 909.8C1609.72 909.8 1609.13 909.421 1608.7 908.745C1608.27 908.07 1608.03 907.155 1608.03 906.2V888.2H1582.64C1582.21 888.199 1581.79 888.01 1581.42 887.653C1581.05 887.296 1580.76 886.786 1580.57 886.181C1580.38 885.576 1580.3 884.899 1580.35 884.229C1580.39 883.559 1580.55 882.922 1580.82 882.39L1594.09 855.8H1587.26C1586.82 855.8 1586.4 855.612 1586.04 855.257C1585.67 854.901 1585.38 854.393 1585.18 853.79C1584.99 853.187 1584.92 852.512 1584.96 851.843C1585 851.174 1585.16 850.537 1585.43 850.004L1608.5 803.204C1608.72 802.767 1609 802.413 1609.31 802.17C1609.63 801.926 1609.98 801.8 1610.33 801.8C1610.69 801.8 1611.04 801.926 1611.35 802.17C1611.67 802.413 1611.95 802.767 1612.16 803.204L1635.24 850.004C1635.5 850.537 1635.67 851.174 1635.71 851.843C1635.75 852.512 1635.67 853.187 1635.48 853.79C1635.29 854.393 1635 854.901 1634.63 855.257C1634.26 855.612 1633.84 855.8 1633.41 855.8H1626.59L1639.85 882.39C1640.11 882.922 1640.28 883.558 1640.32 884.228C1640.37 884.898 1640.29 885.574 1640.1 886.179Z" fill="#EDD3F3"/>
<path d="M1804.14 890.2C1803.98 890.703 1803.73 891.127 1803.42 891.423C1803.11 891.72 1802.75 891.877 1802.38 891.877H1780.95V906.813C1780.95 907.605 1780.74 908.365 1780.38 908.925C1780.01 909.485 1779.52 909.8 1779 909.8C1778.48 909.8 1777.99 909.485 1777.62 908.925C1777.26 908.365 1777.05 907.605 1777.05 906.813V891.877H1755.61C1755.25 891.876 1754.89 891.719 1754.58 891.423C1754.27 891.127 1754.02 890.704 1753.86 890.201C1753.7 889.699 1753.64 889.138 1753.68 888.582C1753.71 888.026 1753.85 887.497 1754.08 887.056L1765.28 864.992H1759.51C1759.15 864.992 1758.79 864.836 1758.48 864.541C1758.17 864.246 1757.92 863.824 1757.76 863.324C1757.6 862.823 1757.54 862.264 1757.57 861.708C1757.61 861.153 1757.74 860.625 1757.97 860.182L1777.45 821.349C1777.64 820.986 1777.87 820.692 1778.14 820.49C1778.41 820.288 1778.7 820.183 1779 820.183C1779.3 820.183 1779.59 820.288 1779.86 820.49C1780.13 820.692 1780.36 820.986 1780.54 821.349L1800.03 860.182C1800.25 860.625 1800.39 861.153 1800.43 861.708C1800.46 862.264 1800.4 862.823 1800.24 863.324C1800.07 863.824 1799.83 864.246 1799.52 864.541C1799.21 864.836 1798.85 864.992 1798.49 864.992H1792.73L1803.92 887.056C1804.15 887.497 1804.28 888.025 1804.32 888.581C1804.36 889.137 1804.3 889.698 1804.14 890.2Z" fill="#DAC9D7"/>
<path d="M1804.14 890.2C1803.98 890.703 1803.73 891.127 1803.42 891.423C1803.11 891.72 1802.75 891.877 1802.38 891.877H1780.95V906.813C1780.95 907.605 1780.74 908.365 1780.38 908.925C1780.01 909.485 1779.52 909.8 1779 909.8C1778.48 909.8 1777.99 909.485 1777.62 908.925C1777.26 908.365 1777.05 907.605 1777.05 906.813V891.877H1755.61C1755.25 891.876 1754.89 891.719 1754.58 891.423C1754.27 891.127 1754.02 890.704 1753.86 890.201C1753.7 889.699 1753.64 889.138 1753.68 888.582C1753.71 888.026 1753.85 887.497 1754.08 887.056L1765.28 864.992H1759.51C1759.15 864.992 1758.79 864.836 1758.48 864.541C1758.17 864.246 1757.92 863.824 1757.76 863.324C1757.6 862.823 1757.54 862.264 1757.57 861.708C1757.61 861.153 1757.74 860.625 1757.97 860.182L1777.45 821.349C1777.64 820.986 1777.87 820.692 1778.14 820.49C1778.41 820.288 1778.7 820.183 1779 820.183C1779.3 820.183 1779.59 820.288 1779.86 820.49C1780.13 820.692 1780.36 820.986 1780.54 821.349L1800.03 860.182C1800.25 860.625 1800.39 861.153 1800.43 861.708C1800.46 862.264 1800.4 862.823 1800.24 863.324C1800.07 863.824 1799.83 864.246 1799.52 864.541C1799.21 864.836 1798.85 864.992 1798.49 864.992H1792.73L1803.92 887.056C1804.15 887.497 1804.28 888.025 1804.32 888.581C1804.36 889.137 1804.3 889.698 1804.14 890.2Z" fill="#DAC9D7"/>
<path d="M1672.17 893.718C1672.04 894.131 1671.84 894.479 1671.59 894.722C1671.33 894.965 1671.04 895.094 1670.74 895.094H1653.26V907.349C1653.26 907.999 1653.09 908.623 1652.79 909.083C1652.49 909.542 1652.09 909.8 1651.67 909.8C1651.24 909.8 1650.84 909.542 1650.54 909.083C1650.24 908.623 1650.08 907.999 1650.08 907.349V895.094H1632.59C1632.29 895.094 1632 894.965 1631.75 894.722C1631.5 894.479 1631.29 894.131 1631.16 893.719C1631.03 893.307 1630.98 892.847 1631.01 892.391C1631.04 891.935 1631.15 891.501 1631.33 891.139L1640.48 873.035H1635.77C1635.47 873.035 1635.18 872.907 1634.93 872.665C1634.68 872.423 1634.47 872.077 1634.34 871.666C1634.21 871.255 1634.16 870.796 1634.19 870.341C1634.22 869.885 1634.33 869.451 1634.51 869.088L1650.41 837.225C1650.55 836.927 1650.75 836.686 1650.96 836.521C1651.18 836.355 1651.42 836.269 1651.67 836.269C1651.91 836.269 1652.15 836.355 1652.37 836.521C1652.59 836.686 1652.78 836.927 1652.93 837.225L1668.82 869.088C1669.01 869.451 1669.12 869.885 1669.15 870.341C1669.18 870.796 1669.12 871.255 1668.99 871.666C1668.86 872.077 1668.66 872.423 1668.4 872.665C1668.15 872.907 1667.86 873.035 1667.56 873.035H1662.87L1672 891.139C1672.18 891.501 1672.29 891.934 1672.32 892.39C1672.36 892.846 1672.3 893.306 1672.17 893.718Z" fill="#DAC9D7"/>
<path d="M1672.17 893.718C1672.04 894.131 1671.84 894.479 1671.59 894.722C1671.33 894.965 1671.04 895.094 1670.74 895.094H1653.26V907.349C1653.26 907.999 1653.09 908.623 1652.79 909.083C1652.49 909.542 1652.09 909.8 1651.67 909.8C1651.24 909.8 1650.84 909.542 1650.54 909.083C1650.24 908.623 1650.08 907.999 1650.08 907.349V895.094H1632.59C1632.29 895.094 1632 894.965 1631.75 894.722C1631.5 894.479 1631.29 894.131 1631.16 893.719C1631.03 893.307 1630.98 892.847 1631.01 892.391C1631.04 891.935 1631.15 891.501 1631.33 891.139L1640.48 873.035H1635.77C1635.47 873.035 1635.18 872.907 1634.93 872.665C1634.68 872.423 1634.47 872.077 1634.34 871.666C1634.21 871.255 1634.16 870.796 1634.19 870.341C1634.22 869.885 1634.33 869.451 1634.51 869.088L1650.41 837.225C1650.55 836.927 1650.75 836.686 1650.96 836.521C1651.18 836.355 1651.42 836.269 1651.67 836.269C1651.91 836.269 1652.15 836.355 1652.37 836.521C1652.59 836.686 1652.78 836.927 1652.93 837.225L1668.82 869.088C1669.01 869.451 1669.12 869.885 1669.15 870.341C1669.18 870.796 1669.12 871.255 1668.99 871.666C1668.86 872.077 1668.66 872.423 1668.4 872.665C1668.15 872.907 1667.86 873.035 1667.56 873.035H1662.87L1672 891.139C1672.18 891.501 1672.29 891.934 1672.32 892.39C1672.36 892.846 1672.3 893.306 1672.17 893.718Z" fill="#DAC9D7"/>
<path d="M1218.49 813.329C1218.34 813.799 1218.11 814.196 1217.82 814.473C1217.54 814.751 1217.21 814.898 1216.87 814.898H1197.13V828.876C1197.13 829.618 1196.94 830.329 1196.6 830.853C1196.27 831.378 1195.81 831.672 1195.33 831.672C1194.86 831.672 1194.4 831.378 1194.06 830.853C1193.73 830.329 1193.54 829.618 1193.54 828.876V814.898H1173.79C1173.46 814.897 1173.13 814.75 1172.84 814.473C1172.56 814.196 1172.33 813.8 1172.18 813.33C1172.03 812.86 1171.97 812.335 1172.01 811.814C1172.04 811.294 1172.17 810.799 1172.38 810.386L1182.7 789.736H1177.38C1177.05 789.736 1176.72 789.59 1176.43 789.314C1176.15 789.038 1175.92 788.644 1175.77 788.175C1175.62 787.707 1175.56 787.183 1175.6 786.663C1175.63 786.144 1175.76 785.649 1175.96 785.235L1193.91 748.89C1194.08 748.551 1194.29 748.276 1194.54 748.087C1194.79 747.898 1195.06 747.8 1195.33 747.8C1195.61 747.8 1195.88 747.898 1196.13 748.087C1196.37 748.276 1196.59 748.551 1196.76 748.89L1214.7 785.235C1214.91 785.649 1215.04 786.144 1215.07 786.663C1215.1 787.183 1215.04 787.707 1214.89 788.175C1214.74 788.644 1214.52 789.038 1214.23 789.314C1213.95 789.59 1213.62 789.736 1213.28 789.736H1207.98L1218.29 810.386C1218.49 810.799 1218.62 811.293 1218.66 811.813C1218.69 812.334 1218.63 812.859 1218.49 813.329Z" fill="#EDD3F3"/>
<path fill-rule="evenodd" clip-rule="evenodd" d="M911.178 846.618C911.258 846.55 911.358 846.509 911.463 846.501C911.568 846.494 911.672 846.519 911.762 846.574C913.49 847.638 914.437 848.983 914.942 850.464C915.067 850.831 915.165 851.204 915.24 851.582C915.755 850.717 916.577 850.031 917.815 849.536C917.902 849.501 917.997 849.492 918.09 849.509C918.182 849.525 918.268 849.568 918.337 849.631C918.407 849.695 918.457 849.777 918.482 849.867C918.507 849.958 918.506 850.054 918.479 850.144L918.389 850.446C917.709 852.71 917.5 853.403 917.5 855C917.5 855.133 917.447 855.26 917.354 855.354C917.26 855.447 917.133 855.5 917 855.5H911C910.867 855.5 910.74 855.447 910.646 855.354C910.553 855.26 910.5 855.133 910.5 855C910.5 853.068 910.264 851.873 909.526 849.658C909.495 849.568 909.492 849.471 909.515 849.378C909.538 849.286 909.588 849.202 909.657 849.137C909.726 849.071 909.813 849.027 909.907 849.009C910 848.991 910.097 849.001 910.186 849.036C910.883 849.315 911.413 849.687 911.813 850.126C911.679 849.117 911.418 848.129 911.036 847.186C910.997 847.088 910.99 846.981 911.015 846.879C911.041 846.777 911.098 846.685 911.178 846.618Z" fill="#C8B8CC"/>
<path fill-rule="evenodd" clip-rule="evenodd" d="M1514.18 885.618C1514.26 885.55 1514.36 885.509 1514.46 885.501C1514.57 885.494 1514.67 885.519 1514.76 885.574C1516.49 886.638 1517.44 887.983 1517.94 889.464C1518.07 889.831 1518.16 890.204 1518.24 890.582C1518.75 889.717 1519.58 889.031 1520.81 888.536C1520.9 888.501 1521 888.492 1521.09 888.509C1521.18 888.525 1521.27 888.568 1521.34 888.631C1521.41 888.695 1521.46 888.777 1521.48 888.867C1521.51 888.958 1521.51 889.054 1521.48 889.144L1521.39 889.446C1520.71 891.71 1520.5 892.403 1520.5 894C1520.5 894.133 1520.45 894.26 1520.35 894.354C1520.26 894.447 1520.13 894.5 1520 894.5H1514C1513.87 894.5 1513.74 894.447 1513.65 894.354C1513.55 894.26 1513.5 894.133 1513.5 894C1513.5 892.068 1513.26 890.873 1512.53 888.658C1512.5 888.568 1512.49 888.471 1512.52 888.378C1512.54 888.286 1512.59 888.202 1512.66 888.137C1512.73 888.071 1512.81 888.027 1512.91 888.009C1513 887.991 1513.1 888.001 1513.19 888.036C1513.88 888.315 1514.41 888.687 1514.81 889.126C1514.68 888.117 1514.42 887.129 1514.04 886.186C1514 886.088 1513.99 885.981 1514.02 885.879C1514.04 885.777 1514.1 885.685 1514.18 885.618Z" fill="#C8B8CC"/>
<path fill-rule="evenodd" clip-rule="evenodd" d="M22.178 764.618C22.2584 764.55 22.3581 764.509 22.463 764.501C22.5678 764.494 22.6725 764.519 22.762 764.574C24.4895 765.638 25.437 766.983 25.942 768.464C26.067 768.831 26.1645 769.204 26.24 769.582C26.7545 768.717 27.5765 768.031 28.8145 767.536C28.9018 767.501 28.9972 767.492 29.0896 767.509C29.1821 767.525 29.2679 767.568 29.3373 767.631C29.4067 767.695 29.4568 767.777 29.4818 767.867C29.5069 767.958 29.5059 768.054 29.479 768.144L29.3885 768.446C28.7085 770.71 28.5 771.403 28.5 773C28.5 773.133 28.4473 773.26 28.3536 773.354C28.2598 773.447 28.1326 773.5 28 773.5H22C21.8674 773.5 21.7402 773.447 21.6465 773.354C21.5527 773.26 21.5 773.133 21.5 773C21.5 771.068 21.264 769.873 20.5255 767.658C20.4955 767.568 20.4919 767.471 20.5152 767.378C20.5385 767.286 20.5877 767.202 20.6571 767.137C20.7264 767.071 20.813 767.027 20.9066 767.009C21.0003 766.991 21.097 767.001 21.1855 767.036C21.883 767.315 22.413 767.687 22.813 768.126C22.6792 767.117 22.4181 766.129 22.036 765.186C21.9969 765.088 21.9895 764.981 22.015 764.879C22.0405 764.777 22.0975 764.685 22.178 764.618Z" fill="#C8B8CC"/>
<path fill-rule="evenodd" clip-rule="evenodd" d="M1183.18 851.618C1183.26 851.55 1183.36 851.509 1183.46 851.501C1183.57 851.494 1183.67 851.519 1183.76 851.574C1185.49 852.638 1186.44 853.983 1186.94 855.464C1187.07 855.831 1187.16 856.204 1187.24 856.582C1187.75 855.717 1188.58 855.031 1189.81 854.536C1189.9 854.501 1190 854.492 1190.09 854.509C1190.18 854.525 1190.27 854.568 1190.34 854.631C1190.41 854.695 1190.46 854.777 1190.48 854.867C1190.51 854.958 1190.51 855.054 1190.48 855.144L1190.39 855.446C1189.71 857.71 1189.5 858.403 1189.5 860C1189.5 860.133 1189.45 860.26 1189.35 860.354C1189.26 860.447 1189.13 860.5 1189 860.5H1183C1182.87 860.5 1182.74 860.447 1182.65 860.354C1182.55 860.26 1182.5 860.133 1182.5 860C1182.5 858.068 1182.26 856.873 1181.53 854.658C1181.5 854.568 1181.49 854.471 1181.52 854.378C1181.54 854.286 1181.59 854.202 1181.66 854.137C1181.73 854.071 1181.81 854.027 1181.91 854.009C1182 853.991 1182.1 854.001 1182.19 854.036C1182.88 854.315 1183.41 854.687 1183.81 855.126C1183.68 854.117 1183.42 853.129 1183.04 852.186C1183 852.088 1182.99 851.981 1183.02 851.879C1183.04 851.777 1183.1 851.685 1183.18 851.618Z" fill="#C8B8CC"/>
<path fill-rule="evenodd" clip-rule="evenodd" d="M1046.18 849.618C1046.26 849.55 1046.36 849.509 1046.46 849.501C1046.57 849.494 1046.67 849.519 1046.76 849.574C1048.49 850.638 1049.44 851.983 1049.94 853.464C1050.07 853.831 1050.16 854.204 1050.24 854.582C1050.75 853.717 1051.58 853.031 1052.81 852.536C1052.9 852.501 1053 852.492 1053.09 852.509C1053.18 852.525 1053.27 852.568 1053.34 852.631C1053.41 852.695 1053.46 852.777 1053.48 852.867C1053.51 852.958 1053.51 853.054 1053.48 853.144L1053.39 853.446C1052.71 855.71 1052.5 856.403 1052.5 858C1052.5 858.133 1052.45 858.26 1052.35 858.354C1052.26 858.447 1052.13 858.5 1052 858.5H1046C1045.87 858.5 1045.74 858.447 1045.65 858.354C1045.55 858.26 1045.5 858.133 1045.5 858C1045.5 856.068 1045.26 854.873 1044.53 852.658C1044.5 852.568 1044.49 852.471 1044.52 852.378C1044.54 852.286 1044.59 852.202 1044.66 852.137C1044.73 852.071 1044.81 852.027 1044.91 852.009C1045 851.991 1045.1 852.001 1045.19 852.036C1045.88 852.315 1046.41 852.687 1046.81 853.126C1046.68 852.117 1046.42 851.129 1046.04 850.186C1046 850.088 1045.99 849.981 1046.02 849.879C1046.04 849.777 1046.1 849.685 1046.18 849.618Z" fill="#C8B8CC"/>
<path fill-rule="evenodd" clip-rule="evenodd" d="M1801.18 959.618C1801.26 959.55 1801.36 959.509 1801.46 959.501C1801.57 959.494 1801.67 959.519 1801.76 959.574C1803.49 960.638 1804.44 961.983 1804.94 963.464C1805.07 963.831 1805.16 964.204 1805.24 964.582C1805.75 963.717 1806.58 963.031 1807.81 962.536C1807.9 962.501 1808 962.492 1808.09 962.509C1808.18 962.525 1808.27 962.568 1808.34 962.631C1808.41 962.695 1808.46 962.777 1808.48 962.867C1808.51 962.958 1808.51 963.054 1808.48 963.144L1808.39 963.446C1807.71 965.71 1807.5 966.403 1807.5 968C1807.5 968.133 1807.45 968.26 1807.35 968.354C1807.26 968.447 1807.13 968.5 1807 968.5H1801C1800.87 968.5 1800.74 968.447 1800.65 968.354C1800.55 968.26 1800.5 968.133 1800.5 968C1800.5 966.068 1800.26 964.873 1799.53 962.658C1799.5 962.568 1799.49 962.471 1799.52 962.378C1799.54 962.286 1799.59 962.202 1799.66 962.137C1799.73 962.071 1799.81 962.027 1799.91 962.009C1800 961.991 1800.1 962.001 1800.19 962.036C1800.88 962.315 1801.41 962.687 1801.81 963.126C1801.68 962.117 1801.42 961.129 1801.04 960.186C1801 960.088 1800.99 959.981 1801.02 959.879C1801.04 959.777 1801.1 959.685 1801.18 959.618Z" fill="#DAC9D6"/>
</g>
<defs>
<clipPath id="clip0_278_937">
<rect width="1920" height="1080" fill="white"/>
</clipPath>
</defs>
</svg>
