<svg width="180" height="74" viewBox="0 0 180 74" fill="none" xmlns="http://www.w3.org/2000/svg">
<rect x="13.1152" width="166.886" height="66.4653" fill="#C48245"/>
<rect x="3" y="7.22461" width="166.886" height="66.4653" fill="#EBB751"/>
<path d="M69.1512 46.6899H58.6512V36.1899L60.7512 34.0899H58.6512V31.9899H69.1512V34.0899H61.0512V40.0899L62.8512 38.2899H69.1512V40.3899H61.0512V44.5899H69.1512V46.6899ZM83.5512 46.6899H81.4512V37.9899H75.1512V46.6899H73.0512V36.1899H75.1512V37.6899L76.6512 36.1899H81.4512C82.0312 36.1899 82.5212 36.3999 82.9212 36.8199C83.3412 37.2199 83.5512 37.7099 83.5512 38.2899V46.6899ZM94.6582 46.6899H90.4582C89.8782 46.6899 89.3782 46.4899 88.9582 46.0899C88.5582 45.6699 88.3582 45.1699 88.3582 44.5899V37.9899H85.3582L87.1582 36.1899H88.3582V34.0899L90.4582 31.9899V36.1899H94.6582V37.9899H90.4582V44.8899H94.6582V46.6899ZM108.161 46.6899H99.7605C99.1805 46.6899 98.6805 46.4899 98.2605 46.0899C97.8605 45.6699 97.6605 45.1699 97.6605 44.5899V38.2899C97.6605 37.7099 97.8605 37.2199 98.2605 36.8199C98.6805 36.3999 99.1805 36.1899 99.7605 36.1899H106.061C106.641 36.1899 107.131 36.3999 107.531 36.8199C107.951 37.2199 108.161 37.7099 108.161 38.2899V40.3899L106.061 42.4899H100.061L101.861 40.6899H106.061V37.9899H99.7605V44.8899H108.161V46.6899ZM119.859 40.3899H117.759V37.9899H113.559V46.6899H111.459V36.1899H113.559V37.6899L115.059 36.1899H117.759C118.339 36.1899 118.829 36.3999 119.229 36.8199C119.649 37.2199 119.859 37.7099 119.859 38.2899V40.3899Z" fill="black"/>
</svg>
