<svg width="345" height="333" viewBox="0 0 345 333" fill="none" xmlns="http://www.w3.org/2000/svg">
<rect x="133.419" y="4.89736" width="7.22082" height="81.6939" transform="rotate(-19.2739 133.419 4.89736)" fill="#535861" stroke="#DCF969" stroke-width="3"/>
<mask id="path-2-inside-1_514_967" fill="white">
<path fill-rule="evenodd" clip-rule="evenodd" d="M166.582 319.513C151.305 328.025 134.16 332.798 116.046 332.798C51.9557 332.798 0 273.049 0 199.345C0 125.641 51.9557 65.8915 116.046 65.8915C134.16 65.8915 151.305 70.6643 166.582 79.1761C182.876 70.6643 201.164 65.8915 220.486 65.8915C288.849 65.8915 344.269 125.641 344.269 199.345C344.269 273.049 288.849 332.798 220.486 332.798C201.164 332.798 182.876 328.025 166.582 319.513Z"/>
</mask>
<path fill-rule="evenodd" clip-rule="evenodd" d="M166.582 319.513C151.305 328.025 134.16 332.798 116.046 332.798C51.9557 332.798 0 273.049 0 199.345C0 125.641 51.9557 65.8915 116.046 65.8915C134.16 65.8915 151.305 70.6643 166.582 79.1761C182.876 70.6643 201.164 65.8915 220.486 65.8915C288.849 65.8915 344.269 125.641 344.269 199.345C344.269 273.049 288.849 332.798 220.486 332.798C201.164 332.798 182.876 328.025 166.582 319.513Z" fill="#F26565"/>
<path d="M166.582 319.513L169.823 313.309L166.474 311.56L163.174 313.398L166.582 319.513ZM166.582 79.1761L163.174 85.291L166.474 87.1296L169.823 85.3806L166.582 79.1761ZM163.174 313.398C148.884 321.361 132.905 325.798 116.046 325.798V339.798C135.415 339.798 153.726 334.689 169.989 325.628L163.174 313.398ZM116.046 325.798C56.7083 325.798 7 270.134 7 199.345H-7C-7 275.964 47.2031 339.798 116.046 339.798V325.798ZM7 199.345C7 128.556 56.7083 72.8915 116.046 72.8915V58.8915C47.2031 58.8915 -7 122.725 -7 199.345H7ZM116.046 72.8915C132.905 72.8915 148.884 77.3285 163.174 85.291L169.989 73.0612C153.726 64.0002 135.415 58.8915 116.046 58.8915V72.8915ZM169.823 85.3806C185.155 77.3716 202.335 72.8915 220.486 72.8915V58.8915C199.993 58.8915 180.598 63.9571 163.341 72.9716L169.823 85.3806ZM220.486 72.8915C284.497 72.8915 337.269 129.001 337.269 199.345H351.269C351.269 122.28 293.202 58.8915 220.486 58.8915V72.8915ZM337.269 199.345C337.269 269.688 284.497 325.798 220.486 325.798V339.798C293.202 339.798 351.269 276.41 351.269 199.345H337.269ZM220.486 325.798C202.335 325.798 185.155 321.318 169.823 313.309L163.341 325.718C180.598 334.732 199.993 339.798 220.486 339.798V325.798Z" fill="#DCF969" mask="url(#path-2-inside-1_514_967)"/>
</svg>
