<svg width="229" height="213" viewBox="0 0 229 213" fill="none" xmlns="http://www.w3.org/2000/svg">
<rect x="95.1936" y="3.15164" width="9" height="68.0405" transform="rotate(-12.5658 95.1936 3.15164)" fill="#816159" stroke="#DCF969" stroke-width="2"/>
<mask id="path-2-inside-1_453_970" fill="white">
<path fill-rule="evenodd" clip-rule="evenodd" d="M110.807 203.702C100.645 209.364 89.2404 212.539 77.191 212.539C34.5596 212.539 0 172.796 0 123.77C0 74.7435 34.5596 35 77.191 35C89.2404 35 100.645 38.1749 110.807 43.837C121.646 38.1749 133.81 35 146.663 35C192.137 35 229 74.7435 229 123.77C229 172.796 192.137 212.539 146.663 212.539C133.81 212.539 121.646 209.364 110.807 203.702Z"/>
</mask>
<path fill-rule="evenodd" clip-rule="evenodd" d="M110.807 203.702C100.645 209.364 89.2404 212.539 77.191 212.539C34.5596 212.539 0 172.796 0 123.77C0 74.7435 34.5596 35 77.191 35C89.2404 35 100.645 38.1749 110.807 43.837C121.646 38.1749 133.81 35 146.663 35C192.137 35 229 74.7435 229 123.77C229 172.796 192.137 212.539 146.663 212.539C133.81 212.539 121.646 209.364 110.807 203.702Z" fill="#E26E6A"/>
<path d="M110.807 203.702L113.122 199.271L110.73 198.021L108.373 199.335L110.807 203.702ZM110.807 43.837L108.373 48.2047L110.73 49.5181L113.122 48.2688L110.807 43.837ZM108.373 199.335C98.9153 204.604 88.3439 207.539 77.191 207.539V217.539C90.1368 217.539 102.374 214.125 113.24 208.07L108.373 199.335ZM77.191 207.539C37.9543 207.539 5 170.713 5 123.77H-5C-5 174.878 31.1649 217.539 77.191 217.539V207.539ZM5 123.77C5 76.8259 37.9543 40 77.191 40V30C31.1649 30 -5 72.6612 -5 123.77H5ZM77.191 40C88.3439 40 98.9153 42.935 108.373 48.2047L113.24 39.4693C102.374 33.4148 90.1368 30 77.191 30V40ZM113.122 48.2688C123.273 42.9658 134.647 40 146.663 40V30C132.974 30 120.018 33.384 108.491 39.4052L113.122 48.2688ZM146.663 40C189.028 40 224 77.1441 224 123.77H234C234 72.343 195.246 30 146.663 30V40ZM224 123.77C224 170.395 189.028 207.539 146.663 207.539V217.539C195.246 217.539 234 175.196 234 123.77H224ZM146.663 207.539C134.647 207.539 123.273 204.574 113.122 199.271L108.491 208.134C120.018 214.155 132.974 217.539 146.663 217.539V207.539Z" fill="#DCF969" mask="url(#path-2-inside-1_453_970)"/>
</svg>
