<svg width="563" height="538" viewBox="0 0 563 538" fill="none" xmlns="http://www.w3.org/2000/svg">
<path d="M40 20H523C534.046 20 543 28.9543 543 40V518H20V40C20 28.9543 28.9543 20 40 20Z" fill="#BC9979" stroke="#535861" stroke-width="40"/>
<line x1="79" y1="15" x2="79" y2="525" stroke="#535861" stroke-width="2"/>
<line x1="134" y1="15" x2="134" y2="525" stroke="#535861" stroke-width="2"/>
<line x1="198" y1="15" x2="198" y2="525" stroke="#535861" stroke-width="2"/>
<line x1="256" y1="15" x2="256" y2="525" stroke="#535861" stroke-width="2"/>
<line x1="319" y1="15" x2="319" y2="525" stroke="#535861" stroke-width="2"/>
<line x1="375" y1="14" x2="375" y2="524" stroke="#535861" stroke-width="2"/>
<line x1="428" y1="15" x2="428" y2="525" stroke="#535861" stroke-width="2"/>
<line x1="480" y1="15" x2="480" y2="525" stroke="#535861" stroke-width="2"/>
<line x1="532" y1="91" x2="31" y2="91" stroke="#535861" stroke-width="2"/>
<line x1="532" y1="146" x2="31" y2="146" stroke="#535861" stroke-width="2"/>
<line x1="531" y1="209" x2="30" y2="209" stroke="#535861" stroke-width="2"/>
<line x1="531" y1="267" x2="30" y2="267" stroke="#535861" stroke-width="2"/>
<line x1="530" y1="330" x2="29" y2="330" stroke="#535861" stroke-width="2"/>
<line x1="531" y1="387" x2="30" y2="387" stroke="#535861" stroke-width="2"/>
<line x1="529" y1="439" x2="28" y2="439" stroke="#535861" stroke-width="2"/>
<line x1="529" y1="491" x2="28" y2="491" stroke="#535861" stroke-width="2"/>
</svg>
