<svg width="1920" height="1085" viewBox="0 0 1920 1085" fill="none" xmlns="http://www.w3.org/2000/svg">
<rect width="1920" height="1080" transform="translate(0 2)" fill="#A594B3"/>
<path d="M924.581 827.948V890.904M924.581 827.948H857.417M924.581 827.948H1013.13M924.581 890.904H838.371M924.581 890.904H970.024M0 827.948H168.743M168.743 827.948L191.8 890.904M168.743 827.948H388.945M191.8 890.904H54.1316M191.8 890.904H384.936M388.945 827.948L379.589 796.47M388.945 827.948H458.782M388.945 827.948L370.233 764.713M458.782 827.948V890.904M458.782 827.948H656.262M458.782 890.904H384.936M458.782 890.904H622.847M656.262 827.948L675.308 890.904M656.262 827.948H711.062M675.308 890.904H838.371M675.308 890.904H622.847M711.062 827.948L731.444 796.47M711.062 827.948H857.417M711.062 827.948L751.827 764.713M857.417 827.948V764.713M838.371 890.904L861.093 955.252M861.093 955.252H815.983M861.093 955.252H989.405M54.1316 890.904H0M54.1316 890.904V955.252M54.1316 955.252H316.102M54.1316 955.252H10.0244M384.936 890.904L354.863 955.252M354.863 955.252H554.347M354.863 955.252H316.102M622.847 890.904V955.252M622.847 955.252H815.983M622.847 955.252H554.347M815.983 955.252V1019.04M815.983 1019.04H880.139M815.983 1019.04H675.308M554.347 955.252L545.325 1019.04M545.325 1019.04H675.308M545.325 1019.04H355.865M316.102 955.252L266.314 1019.04M266.314 1019.04H61.8169M266.314 1019.04H355.865M10.0244 955.252H0M10.0244 955.252L30.4072 1019.04M30.4072 1019.04H0M30.4072 1019.04H61.8169M61.8169 1019.04V1082M61.8169 1082H0M61.8169 1082H168.409H355.865M880.139 1082V1019.04M880.139 1082H802.617H645.903M880.139 1082H1094.33H1147.12M880.139 1019.04H1020.48M675.308 1019.04L645.903 1082M645.903 1082H355.865M355.865 1082V1019.04M1013.13 827.948V890.904M1013.13 827.948H1149.79M1013.13 890.904H970.024M1013.13 890.904H1275.77M1313.19 890.904L1343.6 827.948M1313.19 890.904H1275.77M1313.19 890.904H1512.34M1343.6 827.948H1418.78M1343.6 827.948H1149.79M1581.18 827.948V890.904M1581.18 827.948H1634.64M1581.18 827.948H1418.78M1581.18 890.904H1512.34M1581.18 890.904H1774.98M1920 890.904H1820.76M1820.76 890.904L1797.03 827.948M1820.76 890.904H1774.98M1797.03 827.948H1881.57M1797.03 827.948H1634.64M1881.57 827.948H1920M1881.57 827.948V764.713M1614.26 764.713L1634.64 827.948M1418.78 827.948V764.713M1149.79 827.948L1127.74 764.713M970.024 890.904L989.405 955.252M989.405 955.252H1020.48M1275.77 890.904L1224.31 955.252M1224.31 955.252H1020.48M1224.31 955.252H1314.86M1512.34 890.904L1504.32 955.252M1504.32 955.252H1314.86M1504.32 955.252H1634.64M1774.98 890.904V955.252M1774.98 955.252H1839.14M1774.98 955.252H1634.64M1920 955.252H1839.14M1839.14 955.252V1019.04M1839.14 1019.04H1920M1839.14 1019.04H1762.62M1020.48 955.252V1019.04M1020.48 1019.04H1128.08M1314.86 955.252V1019.04M1314.86 1019.04H1527.04M1314.86 1019.04H1128.08M1634.64 955.252L1605.23 1019.04M1605.23 1019.04H1762.62M1605.23 1019.04H1527.04M1762.62 1019.04L1791.35 1082M1791.35 1082H1882.91H1920M1791.35 1082H1648.01H1484.61M1527.04 1019.04L1484.61 1082M1484.61 1082H1387.37H1147.12M1128.08 1019.04L1147.12 1082" stroke="#F6EAFF" stroke-opacity="0.19" stroke-width="5"/>
<path d="M924.581 65.2345V128.19M924.581 65.2345H857.417M924.581 65.2345H1013.13M924.581 128.19H838.371M924.581 128.19H970.024M0 65.2345H168.743M168.743 65.2345L191.8 128.19M168.743 65.2345H388.945M191.8 128.19H54.1316M191.8 128.19H384.936M388.945 65.2345L379.589 33.7565M388.945 65.2345H458.782M388.945 65.2345L370.233 2M458.782 65.2345V128.19M458.782 65.2345H656.262M458.782 128.19H384.936M458.782 128.19H622.847M656.262 65.2345L675.308 128.19M656.262 65.2345H711.062M675.308 128.19H838.371M675.308 128.19H622.847M711.062 65.2345L731.444 33.7565M711.062 65.2345H857.417M711.062 65.2345L751.827 2M857.417 65.2345V2M838.371 128.19L861.093 192.539M861.093 192.539H815.983M861.093 192.539H989.405M54.1316 128.19H0M54.1316 128.19V192.539M54.1316 192.539H316.102M54.1316 192.539H10.0244M384.936 128.19L354.863 192.539M354.863 192.539H554.347M354.863 192.539H316.102M622.847 128.19V192.539M622.847 192.539H815.983M622.847 192.539H554.347M815.983 192.539V256.331M815.983 256.331H880.139M815.983 256.331H675.308M554.347 192.539L545.325 256.331M545.325 256.331H675.308M545.325 256.331H355.865M316.102 192.539L266.314 256.331M266.314 256.331H61.8169M266.314 256.331H355.865M10.0244 192.539H0M10.0244 192.539L30.4072 256.331M30.4072 256.331H0M30.4072 256.331H61.8169M61.8169 256.331V319.287M61.8169 319.287H0M61.8169 319.287H168.409M880.139 319.287V256.331M880.139 319.287H802.617M880.139 319.287H1094.33M880.139 256.331H1020.48M675.308 256.331L645.903 319.287M645.903 319.287H355.865M645.903 319.287H802.617M355.865 319.287V256.331M355.865 319.287H168.409M168.409 319.287L188.124 383.357M188.124 383.357H134.995H0M188.124 383.357H428.04H526.613M802.617 319.287L833.359 383.357M833.359 383.357H688.674H526.613M833.359 383.357H922.91H1000.77H1094.33M526.613 383.357L568.716 321.237M1013.13 65.2345V128.19M1013.13 65.2345H1149.79M1013.13 128.19H970.024M1013.13 128.19H1275.77M1313.19 128.19L1343.6 65.2345M1313.19 128.19H1275.77M1313.19 128.19H1512.34M1343.6 65.2345H1418.78M1343.6 65.2345H1149.79M1581.18 65.2345V128.19M1581.18 65.2345H1634.64M1581.18 65.2345H1418.78M1581.18 128.19H1512.34M1581.18 128.19H1774.98M1920 128.19H1820.76M1820.76 128.19L1797.03 65.2345M1820.76 128.19H1774.98M1797.03 65.2345H1881.57M1797.03 65.2345H1634.64M1881.57 65.2345H1920M1881.57 65.2345V2M1614.26 2L1634.64 65.2345M1418.78 65.2345V2M1149.79 65.2345L1127.74 2M970.024 128.19L989.405 192.539M989.405 192.539H1020.48M1275.77 128.19L1224.31 192.539M1224.31 192.539H1020.48M1224.31 192.539H1314.86M1512.34 128.19L1504.32 192.539M1504.32 192.539H1314.86M1504.32 192.539H1634.64M1774.98 128.19V192.539M1774.98 192.539H1839.14M1774.98 192.539H1634.64M1920 192.539H1839.14M1839.14 192.539V256.331M1839.14 256.331H1920M1839.14 256.331H1762.62M1020.48 192.539V256.331M1020.48 256.331H1128.08M1314.86 192.539V256.331M1314.86 256.331H1527.04M1314.86 256.331H1128.08M1634.64 192.539L1605.23 256.331M1605.23 256.331H1762.62M1605.23 256.331H1527.04M1762.62 256.331L1791.35 319.287M1791.35 319.287H1882.91M1791.35 319.287H1648.01M1527.04 256.331L1484.61 319.287M1484.61 319.287H1648.01M1484.61 319.287H1387.37M1128.08 256.331L1147.12 319.287M1147.12 319.287H1387.37M1147.12 319.287H1094.33M1882.91 383.357H1920M1882.91 383.357V319.287M1882.91 383.357H1836.46H1648.01M1882.91 319.287H1920M1648.01 319.287V383.357M1648.01 383.357H1551.77H1335.58M1387.37 319.287L1335.58 383.357M1335.58 383.357H1262.07H1094.33M1094.33 319.287V383.357" stroke="#F6EAFF" stroke-opacity="0.19" stroke-width="5"/>
<path d="M924.581 446.313V509.268M924.581 446.313H857.417M924.581 446.313H1013.13M924.581 509.268H838.371M924.581 509.268H970.024M0 446.313H168.743M168.743 446.313L191.8 509.268M168.743 446.313H388.945M191.8 509.268H54.1316M191.8 509.268H384.936M388.945 446.313L379.589 414.835M388.945 446.313H458.782M388.945 446.313L370.233 383.078M458.782 446.313V509.268M458.782 446.313H656.262M458.782 509.268H384.936M458.782 509.268H622.847M656.262 446.313L675.308 509.268M656.262 446.313H711.062M675.308 509.268H838.371M675.308 509.268H622.847M711.062 446.313L731.444 414.835M711.062 446.313H857.417M711.062 446.313L751.827 383.078M857.417 446.313V383.078M838.371 509.268L861.093 573.617M861.093 573.617H815.983M861.093 573.617H989.405M54.1316 509.268H0M54.1316 509.268V573.617M54.1316 573.617H316.102M54.1316 573.617H10.0244M384.936 509.268L354.863 573.617M354.863 573.617H554.347M354.863 573.617H316.102M622.847 509.268V573.617M622.847 573.617H815.983M622.847 573.617H554.347M815.983 573.617V637.409M815.983 637.409H880.139M815.983 637.409H675.308M554.347 573.617L545.325 637.409M545.325 637.409H675.308M545.325 637.409H355.865M316.102 573.617L266.314 637.409M266.314 637.409H61.8169M266.314 637.409H355.865M10.0244 573.617H0M10.0244 573.617L30.4072 637.409M30.4072 637.409H0M30.4072 637.409H61.8169M61.8169 637.409V700.365M61.8169 700.365H0M61.8169 700.365H168.409M880.139 700.365V637.409M880.139 700.365H802.617M880.139 700.365H1094.33M880.139 637.409H1020.48M675.308 637.409L645.903 700.365M645.903 700.365H355.865M645.903 700.365H802.617M355.865 700.365V637.409M355.865 700.365H168.409M168.409 700.365L188.124 764.435M188.124 764.435H134.995H0M188.124 764.435H428.04H526.613M802.617 700.365L833.359 764.435M833.359 764.435H688.674H526.613M833.359 764.435H922.91H1000.77H1094.33M526.613 764.435L568.716 702.315M1013.13 446.313V509.268M1013.13 446.313H1149.79M1013.13 509.268H970.024M1013.13 509.268H1275.77M1313.19 509.268L1343.6 446.313M1313.19 509.268H1275.77M1313.19 509.268H1512.34M1343.6 446.313H1418.78M1343.6 446.313H1149.79M1581.18 446.313V509.268M1581.18 446.313H1634.64M1581.18 446.313H1418.78M1581.18 509.268H1512.34M1581.18 509.268H1774.98M1920 509.268H1820.76M1820.76 509.268L1797.03 446.313M1820.76 509.268H1774.98M1797.03 446.313H1881.57M1797.03 446.313H1634.64M1881.57 446.313H1920M1881.57 446.313V383.078M1614.26 383.078L1634.64 446.313M1418.78 446.313V383.078M1149.79 446.313L1127.74 383.078M970.024 509.268L989.405 573.617M989.405 573.617H1020.48M1275.77 509.268L1224.31 573.617M1224.31 573.617H1020.48M1224.31 573.617H1314.86M1512.34 509.268L1504.32 573.617M1504.32 573.617H1314.86M1504.32 573.617H1634.64M1774.98 509.268V573.617M1774.98 573.617H1839.14M1774.98 573.617H1634.64M1920 573.617H1839.14M1839.14 573.617V637.409M1839.14 637.409H1920M1839.14 637.409H1762.62M1020.48 573.617V637.409M1020.48 637.409H1128.08M1314.86 573.617V637.409M1314.86 637.409H1527.04M1314.86 637.409H1128.08M1634.64 573.617L1605.23 637.409M1605.23 637.409H1762.62M1605.23 637.409H1527.04M1762.62 637.409L1791.35 700.365M1791.35 700.365H1882.91M1791.35 700.365H1648.01M1527.04 637.409L1484.61 700.365M1484.61 700.365H1648.01M1484.61 700.365H1387.37M1128.08 637.409L1147.12 700.365M1147.12 700.365H1387.37M1147.12 700.365H1094.33M1882.91 764.435H1920M1882.91 764.435V700.365M1882.91 764.435H1836.46H1648.01M1882.91 700.365H1920M1648.01 700.365V764.435M1648.01 764.435H1551.77H1335.58M1387.37 700.365L1335.58 764.435M1335.58 764.435H1262.07H1094.33M1094.33 700.365V764.435" stroke="#F6EAFF" stroke-opacity="0.19" stroke-width="5"/>
</svg>
