<svg width="1407" height="1209" viewBox="0 0 1407 1209" fill="none" xmlns="http://www.w3.org/2000/svg">
<path d="M248.587 786.951C252.468 780.63 261.639 780.587 265.58 786.871L506.449 1170.92C510.615 1177.56 505.865 1186.19 498.025 1186.23L19.9386 1188.5C12.0985 1188.53 7.26696 1179.94 11.3695 1173.26L248.587 786.951Z" fill="#768098"/>
<rect x="131" y="748.001" width="257" height="359" fill="#768098"/>
<ellipse cx="258.719" cy="1180.92" rx="244.345" ry="28.0279" fill="#474E60"/>
<path d="M1158.01 360.821C1154.05 366.331 1145.86 366.364 1141.83 360.887L902.632 35.3018C897.79 28.7114 902.461 19.4223 910.633 19.3892L1385.4 17.4676C1393.58 17.4345 1398.35 26.6854 1393.58 33.3146L1158.01 360.821Z" fill="#768098"/>
<rect x="1276" y="531" width="257" height="443.923" transform="rotate(-180 1276 531)" fill="#768098"/>
<ellipse cx="1148.28" cy="23.9273" rx="244.345" ry="23.9273" transform="rotate(-180 1148.28 23.9273)" fill="#474E60"/>
<path d="M130 581.001C130 553.387 152.386 531.001 180 531.001H1276V698.001C1276 725.616 1253.61 748.001 1226 748.001H130V581.001Z" fill="#768098"/>
</svg>
