<svg width="1407" height="1170" viewBox="0 0 1407 1170" fill="none" xmlns="http://www.w3.org/2000/svg">
<path d="M248.587 747.95C252.468 741.629 261.639 741.585 265.58 747.869L506.449 1131.91C510.615 1138.56 505.865 1147.19 498.025 1147.23L19.9386 1149.49C12.0985 1149.53 7.26696 1140.94 11.3695 1134.26L248.587 747.95Z" fill="#768098"/>
<rect x="131" y="709" width="257" height="359" fill="#768098"/>
<ellipse cx="258.718" cy="1141.92" rx="244.345" ry="28.0279" fill="#474E60"/>
<path d="M1158.41 421.997C1154.53 428.318 1145.36 428.362 1141.42 422.078L900.551 38.0329C896.385 31.3911 901.135 22.7569 908.975 22.7197L1387.06 20.4531C1394.9 20.4159 1399.73 29.0046 1395.63 35.6857L1158.41 421.997Z" fill="#768098"/>
<rect x="1276" y="492" width="257" height="390" transform="rotate(-180 1276 492)" fill="#768098"/>
<ellipse cx="1148.28" cy="28.0278" rx="244.345" ry="28.0279" transform="rotate(-180 1148.28 28.0278)" fill="#474E60"/>
<path d="M130 542C130 514.386 152.386 492 180 492H1276V659C1276 686.614 1253.61 709 1226 709H130V542Z" fill="#768098"/>
</svg>
