<svg width="1331" height="1219" viewBox="0 0 1331 1219" fill="none" xmlns="http://www.w3.org/2000/svg">
<path d="M248.587 796.95C252.468 790.629 261.639 790.585 265.58 796.869L506.449 1180.91C510.615 1187.56 505.865 1196.19 498.025 1196.23L19.9386 1198.49C12.0985 1198.53 7.26696 1189.94 11.3695 1183.26L248.587 796.95Z" fill="#768098"/>
<rect x="131" y="758" width="257" height="359" fill="#768098"/>
<ellipse cx="258.72" cy="1190.92" rx="244.345" ry="28.0279" fill="#474E60"/>
<path d="M1082.41 421.997C1078.53 428.318 1069.36 428.362 1065.42 422.078L824.551 38.0329C820.385 31.391 825.135 22.7569 832.975 22.7197L1311.06 20.4531C1318.9 20.4159 1323.73 29.0046 1319.63 35.6857L1082.41 421.997Z" fill="#768098"/>
<rect x="1200" y="587" width="257" height="485" transform="rotate(-180 1200 587)" fill="#768098"/>
<ellipse cx="1072.28" cy="28.0278" rx="244.345" ry="28.0279" transform="rotate(-180 1072.28 28.0278)" fill="#474E60"/>
<path d="M131 591C131 563.386 153.386 541 181 541H1200V708C1200 735.614 1177.61 758 1150 758H131V591Z" fill="#768098"/>
</svg>
