<svg width="1331" height="1354" viewBox="0 0 1331 1354" fill="none" xmlns="http://www.w3.org/2000/svg">
<path d="M248.587 931.95C252.468 925.629 261.639 925.585 265.58 931.869L506.449 1315.91C510.615 1322.56 505.865 1331.19 498.025 1331.23L19.9386 1333.49C12.0985 1333.53 7.26696 1324.94 11.3695 1318.26L248.587 931.95Z" fill="#768098"/>
<rect x="131" y="736" width="257" height="516" fill="#768098"/>
<ellipse cx="258.718" cy="1325.92" rx="244.345" ry="28.0279" fill="#474E60"/>
<path d="M1082.41 421.997C1078.53 428.318 1069.36 428.362 1065.42 422.078L824.551 38.0332C820.385 31.3913 825.135 22.7571 832.975 22.72L1311.06 20.4533C1318.9 20.4162 1323.73 29.0049 1319.63 35.686L1082.41 421.997Z" fill="#768098"/>
<rect x="1200" y="587" width="257" height="485" transform="rotate(-180 1200 587)" fill="#768098"/>
<ellipse cx="1072.28" cy="28.0278" rx="244.345" ry="28.0279" transform="rotate(-180 1072.28 28.0278)" fill="#474E60"/>
<path d="M131 591C131 563.386 153.386 541 181 541H1200V708C1200 735.614 1177.61 758 1150 758H131V591Z" fill="#768098"/>
</svg>
