<svg width="198" height="1404" viewBox="0 0 198 1404" fill="none" xmlns="http://www.w3.org/2000/svg">
<path d="M92.4104 1246.7C94.3725 1243.59 98.9041 1243.59 100.866 1246.7L188.434 1385.39C190.536 1388.72 188.144 1393.06 184.206 1393.06H9.07012C5.13267 1393.06 2.74019 1388.72 4.84229 1385.39L92.4104 1246.7Z" fill="#909AB4"/>
<ellipse cx="93" cy="16" rx="93" ry="16" transform="matrix(1 0 0 -1 5 1404)" fill="#474E60"/>
<path d="M169 6.99976L169 1356H27L27 6.99976L169 6.99976Z" fill="#909AB4"/>
<path d="M96.4104 159.363C98.3725 162.47 102.904 162.47 104.866 159.363L192.434 20.6694C194.536 17.34 192.144 13 188.206 13H13.0701C9.13267 13 6.74019 17.34 8.84229 20.6694L96.4104 159.363Z" fill="#909AB4"/>
<ellipse cx="100" cy="14.9998" rx="93" ry="15" fill="#474E60"/>
<line y1="-3" x2="28.6824" y2="-3" transform="matrix(0.352563 0.935788 -0.94945 0.313919 89.6523 99.9835)" stroke="#876057" stroke-width="6"/>
<ellipse cx="86.2809" cy="139.85" rx="25.2809" ry="27.2354" fill="#F26565"/>
<ellipse cx="109.033" cy="139.85" rx="26.9663" ry="27.2354" fill="#F26565"/>
</svg>
