<svg width="1634" height="1502" viewBox="0 0 1634 1502" fill="none" xmlns="http://www.w3.org/2000/svg">
<path d="M79.5 13H187.815C197.03 13 202.806 22.9569 198.232 30.9568L182.5 58.4686V736H78L79.5 13Z" fill="#656D82"/>
<path d="M78.5 1490H183.456C193.782 1490 199.286 1477.82 192.465 1470.07L181.5 1457.61V975H77L78.5 1490Z" fill="#656D82"/>
<path d="M1527 744H1584C1611.61 744 1634 766.386 1634 794V1001H1527V744Z" fill="#656D82"/>
<path d="M174 1101L174 994L1634 994L1634 1051C1634 1078.61 1611.61 1101 1584 1101L174 1101Z" fill="#656D82"/>
<path d="M87 890C59.3858 890 37 867.614 37 840L37 783L1599 783L1599 840C1599 867.614 1576.61 890 1549 890L87 890Z" fill="#656D82"/>
<path d="M92.4104 1343.7C94.3725 1340.59 98.9041 1340.59 100.866 1343.7L188.434 1482.39C190.536 1485.72 188.144 1490.06 184.206 1490.06H9.07012C5.13267 1490.06 2.74019 1485.72 4.84229 1482.39L92.4104 1343.7Z" fill="#909AB4"/>
<path d="M189.5 1486C189.5 1477.16 149.362 1470 98 1470C46.6375 1470 5 1477.16 5 1486C5 1494.84 46.6375 1502 98 1502C149.362 1502 189.5 1494.84 189.5 1486Z" fill="#474E60"/>
<path d="M169 7L169 736H27L27 7L169 7Z" fill="#909AB4"/>
<path d="M96.4104 159.363C98.3725 162.47 102.904 162.47 104.866 159.363L192.434 20.6696C194.536 17.3403 192.144 13.0003 188.206 13.0003H13.0701C9.13267 13.0003 6.74019 17.3403 8.84229 20.6696L96.4104 159.363Z" fill="#909AB4"/>
<ellipse cx="100" cy="15" rx="93" ry="15" fill="#474E60"/>
<path d="M1624 801V1039C1624 1066.61 1601.61 1089 1574 1089H1468V801H1624Z" fill="#909AB4"/>
<path d="M77 878C49.3858 878 27 855.614 27 828L27 736L1574 736C1601.61 736 1624 758.386 1624 786V878L77 878Z" fill="#909AB4"/>
<path d="M77 1089C49.3858 1089 27 1066.61 27 1039L27 997C27 969.386 49.3858 947 77 947L1624 947V1039C1624 1066.61 1601.61 1089 1574 1089H77Z" fill="#909AB4"/>
<path d="M169 947L169 1457H27L27 997C27 969.386 49.3858 947 77 947H169Z" fill="#909AB4"/>
<line y1="-3" x2="28.6824" y2="-3" transform="matrix(0.352563 0.935788 -0.94945 0.313919 89.6523 99.9838)" stroke="#876057" stroke-width="6"/>
<ellipse cx="86.2809" cy="139.85" rx="25.2809" ry="27.2354" fill="#F26565"/>
<ellipse cx="109.033" cy="139.85" rx="26.9663" ry="27.2354" fill="#F26565"/>
<path d="M158 718C158 737.5 165 747.5 185.5 747.5" stroke="#909AB4" stroke-width="21"/>
</svg>
