<svg width="1757" height="1502" viewBox="0 0 1757 1502" fill="none" xmlns="http://www.w3.org/2000/svg">
<path d="M202.5 13H310.815C320.03 13 325.806 22.9569 321.232 30.9568L305.5 58.4686V736H201L202.5 13Z" fill="#656D82"/>
<path d="M78.5 1490H183.456C193.782 1490 199.286 1477.82 192.465 1470.07L181.5 1457.61V975H77L78.5 1490Z" fill="#656D82"/>
<path d="M1650 744H1707C1734.61 744 1757 766.386 1757 794V1001H1650V744Z" fill="#656D82"/>
<path d="M169 1101L169 994L1757 994L1757 1051C1757 1078.61 1734.61 1101 1707 1101L169 1101Z" fill="#656D82"/>
<path d="M210 890C182.386 890 160 867.614 160 840L160 783L1722 783L1722 840C1722 867.614 1699.61 890 1672 890L210 890Z" fill="#656D82"/>
<path d="M92.4104 1343.7C94.3725 1340.59 98.9041 1340.59 100.866 1343.7L188.434 1482.39C190.536 1485.72 188.144 1490.06 184.206 1490.06H9.07012C5.13267 1490.06 2.74019 1485.72 4.84229 1482.39L92.4104 1343.7Z" fill="#909AB4"/>
<path d="M189.5 1486C189.5 1477.16 149.362 1470 98 1470C46.6375 1470 5 1477.16 5 1486C5 1494.84 46.6375 1502 98 1502C149.362 1502 189.5 1494.84 189.5 1486Z" fill="#474E60"/>
<path d="M292 7L292 736H150L150 7L292 7Z" fill="#909AB4"/>
<path d="M219.41 159.363C221.372 162.47 225.904 162.47 227.866 159.363L315.434 20.6696C317.536 17.3403 315.144 13.0003 311.206 13.0003H136.07C132.133 13.0003 129.74 17.3403 131.842 20.6696L219.41 159.363Z" fill="#909AB4"/>
<ellipse cx="223" cy="15" rx="93" ry="15" fill="#474E60"/>
<path d="M1747 801V1039C1747 1066.61 1724.61 1089 1697 1089H1591V801H1747Z" fill="#909AB4"/>
<path d="M200 878C172.386 878 150 855.614 150 828V736L1697 736C1724.61 736 1747 758.386 1747 786V878L200 878Z" fill="#909AB4"/>
<path d="M76 1089C48.3857 1089 26 1066.61 26 1039L26 997C26 969.386 48.3858 947 76 947L1747 947V1039C1747 1066.61 1724.61 1089 1697 1089H76Z" fill="#909AB4"/>
<path d="M169 947L169 1457H27L27 997C27 969.386 49.3858 947 77 947H169Z" fill="#909AB4"/>
<line y1="-3" x2="28.6824" y2="-3" transform="matrix(0.352563 0.935788 -0.94945 0.313919 212.652 99.9838)" stroke="#876057" stroke-width="6"/>
<ellipse cx="209.281" cy="139.85" rx="25.2809" ry="27.2354" fill="#F26565"/>
<ellipse cx="232.033" cy="139.85" rx="26.9663" ry="27.2354" fill="#F26565"/>
<path d="M281 718C281 737.5 288 747.5 308.5 747.5" stroke="#909AB4" stroke-width="21"/>
</svg>
