<svg width="1483" height="1502" viewBox="0 0 1483 1502" fill="none" xmlns="http://www.w3.org/2000/svg">
<path d="M92.4104 1343.7C94.3725 1340.59 98.9041 1340.59 100.866 1343.7L188.434 1482.39C190.536 1485.72 188.144 1490.06 184.206 1490.06H9.07012C5.13267 1490.06 2.74019 1485.72 4.84229 1482.39L92.4104 1343.7Z" fill="#909AB4"/>
<ellipse cx="93" cy="16" rx="93" ry="16" transform="matrix(1 0 0 -1 5 1502)" fill="#474E60"/>
<path d="M169 7L169 736H27L27 7L169 7Z" fill="#909AB4"/>
<path d="M169 947L169 1457H27L27 997C27 969.386 49.3858 947 77 947H169Z" fill="#909AB4"/>
<path d="M96.4104 159.362C98.3725 162.47 102.904 162.47 104.866 159.362L192.434 20.6693C194.536 17.3399 192.144 12.9999 188.206 12.9999H13.0701C9.13267 12.9999 6.74019 17.3399 8.84229 20.6693L96.4104 159.362Z" fill="#909AB4"/>
<ellipse cx="100" cy="15" rx="93" ry="15" fill="#474E60"/>
<line y1="-3" x2="28.6824" y2="-3" transform="matrix(0.352563 0.935788 -0.94945 0.313919 89.6523 99.9834)" stroke="#876057" stroke-width="6"/>
<ellipse cx="86.2809" cy="139.85" rx="25.2809" ry="27.2354" fill="#F26565"/>
<ellipse cx="109.033" cy="139.85" rx="26.9663" ry="27.2354" fill="#F26565"/>
<path d="M1483 773V1039C1483 1066.61 1460.61 1089 1433 1089H1341V773H1483Z" fill="#909AB4"/>
<path d="M77 878C49.3858 878 27 855.614 27 828L27 736L1433 736C1460.61 736 1483 758.386 1483 786V878L77 878Z" fill="#909AB4"/>
<path d="M77 1089C49.3858 1089 27 1066.61 27 1039L27 997C27 969.386 49.3858 947 77 947L1483 947V1039C1483 1066.61 1460.61 1089 1433 1089H77Z" fill="#909AB4"/>
</svg>
