<svg width="1053" height="579" viewBox="0 0 1053 579" fill="none" xmlns="http://www.w3.org/2000/svg">
<path d="M79 8L182.312 12.3609C191.524 12.7497 196.874 22.9506 191.957 30.7501L179 51.3008L183.5 579H79V8Z" fill="#656D82"/>
<path d="M169 8.99988L169 454H27.0004L27.0004 8.99988L169 8.99988Z" fill="#909AB4"/>
<path d="M92.4104 159.363C94.3725 162.47 98.9041 162.47 100.866 159.363L188.434 20.6694C190.536 17.34 188.144 13 184.206 13H9.07012C5.13267 13 2.74019 17.34 4.84229 20.6694L92.4104 159.363Z" fill="#909AB4"/>
<path d="M189 16C189 24.8366 146.662 32 96.4043 32C46.1464 32 5.4043 24.8366 5.4043 16C5.4043 7.16344 46.1464 0 96.4043 0C146.662 0 189 7.16344 189 16Z" fill="#474E60"/>
<path d="M84.5058 92.6384L79.907 92.4449L78.6467 102.085C78.6467 102.085 62.5884 128.009 67.2939 147.469C71.6583 165.518 78.3256 177.281 94.4396 186.509C101.292 190.434 105.674 192.34 113.525 193.191C126.392 194.586 145.441 184.257 145.441 184.257L143 178.359C143 178.359 117.742 177.25 105.287 168.496C93.333 160.094 87.8964 151.948 83.6619 137.964C79.6222 124.623 84.1213 102.274 84.1213 102.274L84.5058 92.6384Z" fill="#F8D760"/>
<path d="M84.9413 92.1981L84.547 100.082L78.6346 99.8959L79.6442 91.8299L84.9413 92.1981Z" fill="#876057"/>
<path d="M143.217 178.139L146.099 184.472L143.696 185.58L139.712 177.72L143.217 178.139Z" fill="#876057"/>
<path d="M79 579C51.3858 579 29 556.614 29 529L29 437L1053 437V579L79 579Z" fill="#909AB4"/>
<path d="M158 419C158 438.5 165 448.5 185.5 448.5" stroke="#909AB4" stroke-width="21"/>
</svg>
