<svg width="1035" height="596" viewBox="0 0 1035 596" fill="none" xmlns="http://www.w3.org/2000/svg">
<path d="M169 9L169 454H27L27 9L169 9Z" fill="#909AB4"/>
<path d="M92.4104 159.362C94.3725 162.47 98.9041 162.47 100.866 159.362L188.434 20.6693C190.536 17.3399 188.144 12.9999 184.206 12.9999H9.07012C5.13267 12.9999 2.74019 17.3399 4.84229 20.6693L92.4104 159.362Z" fill="#909AB4"/>
<path d="M189.002 16C189.002 24.8366 146.664 32 96.4062 32C46.1483 32 5.40625 24.8366 5.40625 16C5.40625 7.16344 46.1483 0 96.4062 0C146.664 0 189.002 7.16344 189.002 16Z" fill="#474E60"/>
<path d="M84.5036 92.6381L79.9048 92.4446L78.6445 102.085C78.6445 102.085 62.5862 128.009 67.2917 147.469C71.6561 165.518 78.3234 177.28 94.4374 186.509C101.29 190.433 105.672 192.34 113.522 193.191C126.39 194.585 145.438 184.256 145.438 184.256L142.997 178.359C142.997 178.359 117.739 177.249 105.285 168.496C93.3308 160.094 87.8942 151.948 83.6597 137.964C79.62 124.623 84.1191 102.274 84.1191 102.274L84.5036 92.6381Z" fill="#F8D760"/>
<path d="M84.9405 92.1979L84.5462 100.082L78.6338 99.8957L79.6434 91.8298L84.9405 92.1979Z" fill="#876057"/>
<path d="M143.216 178.138L146.097 184.472L143.695 185.58L139.711 177.72L143.216 178.138Z" fill="#876057"/>
<path d="M77 596C49.3858 596 27 573.614 27 546L27 454L1035 454V596L77 596Z" fill="#909AB4"/>
</svg>
