<svg width="818" height="596" viewBox="0 0 818 596" fill="none" xmlns="http://www.w3.org/2000/svg">
<path d="M169 8.99991L169 454H27L27 8.99991L169 8.99991Z" fill="#909AB4"/>
<path d="M92.4104 159.363C94.3725 162.47 98.9041 162.47 100.866 159.363L188.434 20.6694C190.536 17.34 188.144 13 184.206 13H9.07012C5.13267 13 2.74019 17.34 4.84229 20.6694L92.4104 159.363Z" fill="#909AB4"/>
<path d="M189 16C189 24.8366 146.662 32 96.4043 32C46.1464 32 5.4043 24.8366 5.4043 16C5.4043 7.16344 46.1464 0 96.4043 0C146.662 0 189 7.16344 189 16Z" fill="#474E60"/>
<path d="M84.5056 92.6384L79.9067 92.4449L78.6464 102.085C78.6464 102.085 62.5882 128.009 67.2936 147.469C71.658 165.518 78.3254 177.281 94.4394 186.509C101.292 190.434 105.674 192.34 113.524 193.191C126.392 194.586 145.44 184.257 145.44 184.257L142.999 178.359C142.999 178.359 117.741 177.25 105.287 168.496C93.3327 160.094 87.8962 151.948 83.6616 137.964C79.6219 124.623 84.121 102.274 84.121 102.274L84.5056 92.6384Z" fill="#F8D760"/>
<path d="M84.9405 92.1981L84.5462 100.082L78.6338 99.8959L79.6434 91.8299L84.9405 92.1981Z" fill="#876057"/>
<path d="M143.216 178.139L146.097 184.472L143.695 185.58L139.711 177.72L143.216 178.139Z" fill="#876057"/>
<path d="M77 596C49.3858 596 27 573.614 27 546L27 454L1083 454V596L77 596Z" fill="#909AB4"/>
</svg>
