<svg width="1440" height="905" viewBox="0 0 1440 905" fill="none" xmlns="http://www.w3.org/2000/svg">
<rect width="1440" height="900" transform="translate(0 2)" fill="#A594B3"/>
<path d="M693.435 690.29V742.753M693.435 690.29H643.063M693.435 690.29H759.847M693.435 742.753H628.778M693.435 742.753H727.518M0 690.29H126.558M126.558 690.29L143.85 742.753M126.558 690.29H291.709M143.85 742.753H40.5987M143.85 742.753H288.702M291.709 690.29L284.692 664.058M291.709 690.29H344.086M291.709 690.29L277.675 637.595M344.086 690.29V742.753M344.086 690.29H492.196M344.086 742.753H288.702M344.086 742.753H467.135M492.196 690.29L506.481 742.753M492.196 690.29H533.296M506.481 742.753H628.778M506.481 742.753H467.135M533.296 690.29L548.583 664.058M533.296 690.29H643.063M533.296 690.29L563.871 637.595M643.063 690.29V637.595M628.778 742.753L645.82 796.377M645.82 796.377H611.987M645.82 796.377H742.054M40.5987 742.753H0M40.5987 742.753V796.377M40.5987 796.377H237.076M40.5987 796.377H7.51827M288.702 742.753L266.147 796.377M266.147 796.377H415.761M266.147 796.377H237.076M467.135 742.753V796.377M467.135 796.377H611.987M467.135 796.377H415.761M611.987 796.377V849.537M611.987 849.537H660.104M611.987 849.537H506.481M415.761 796.377L408.994 849.537M408.994 849.537H506.481M408.994 849.537H266.899M237.076 796.377L199.735 849.537M199.735 849.537H46.3627M199.735 849.537H266.899M7.51827 796.377H0M7.51827 796.377L22.8054 849.537M22.8054 849.537H0M22.8054 849.537H46.3627M46.3627 849.537V902M46.3627 902H0M46.3627 902H126.307H266.899M660.104 902V849.537M660.104 902H601.963H484.427M660.104 902H820.745H860.341M660.104 849.537H765.36M506.481 849.537L484.427 902M484.427 902H266.899M266.899 902V849.537M759.847 690.29V742.753M759.847 690.29H862.346M759.847 742.753H727.518M759.847 742.753H956.826M984.894 742.753L1007.7 690.29M984.894 742.753H956.826M984.894 742.753H1134.26M1007.7 690.29H1064.09M1007.7 690.29H862.346M1185.88 690.29V742.753M1185.88 690.29H1225.98M1185.88 690.29H1064.09M1185.88 742.753H1134.26M1185.88 742.753H1331.24M1440 742.753H1365.57M1365.57 742.753L1347.78 690.29M1365.57 742.753H1331.24M1347.78 690.29H1411.18M1347.78 690.29H1225.98M1411.18 690.29H1440M1411.18 690.29V637.595M1210.69 637.595L1225.98 690.29M1064.09 690.29V637.595M862.346 690.29L845.806 637.595M727.518 742.753L742.054 796.377M742.054 796.377H765.36M956.826 742.753L918.232 796.377M918.232 796.377H765.36M918.232 796.377H986.147M1134.26 742.753L1128.24 796.377M1128.24 796.377H986.147M1128.24 796.377H1225.98M1331.24 742.753V796.377M1331.24 796.377H1379.35M1331.24 796.377H1225.98M1440 796.377H1379.35M1379.35 796.377V849.537M1379.35 849.537H1440M1379.35 849.537H1321.96M765.36 796.377V849.537M765.36 849.537H846.056M986.147 796.377V849.537M986.147 849.537H1145.28M986.147 849.537H846.056M1225.98 796.377L1203.93 849.537M1203.93 849.537H1321.96M1203.93 849.537H1145.28M1321.96 849.537L1343.52 902M1343.52 902H1412.18H1440M1343.52 902H1236H1113.46M1145.28 849.537L1113.46 902M1113.46 902H1040.53H860.341M846.056 849.537L860.341 902" stroke="#F6EAFF" stroke-opacity="0.19" stroke-width="5"/>
<path d="M693.435 54.6954V107.159M693.435 54.6954H643.063M693.435 54.6954H759.847M693.435 107.159H628.778M693.435 107.159H727.518M0 54.6954H126.558M126.558 54.6954L143.85 107.159M126.558 54.6954H291.709M143.85 107.159H40.5987M143.85 107.159H288.702M291.709 54.6954L284.692 28.4638M291.709 54.6954H344.086M291.709 54.6954L277.675 2M344.086 54.6954V107.159M344.086 54.6954H492.196M344.086 107.159H288.702M344.086 107.159H467.135M492.196 54.6954L506.481 107.159M492.196 54.6954H533.296M506.481 107.159H628.778M506.481 107.159H467.135M533.296 54.6954L548.583 28.4638M533.296 54.6954H643.063M533.296 54.6954L563.871 2M643.063 54.6954V2M628.778 107.159L645.82 160.783M645.82 160.783H611.987M645.82 160.783H742.054M40.5987 107.159H0M40.5987 107.159V160.783M40.5987 160.783H237.076M40.5987 160.783H7.51827M288.702 107.159L266.147 160.783M266.147 160.783H415.761M266.147 160.783H237.076M467.135 107.159V160.783M467.135 160.783H611.987M467.135 160.783H415.761M611.987 160.783V213.942M611.987 213.942H660.104M611.987 213.942H506.481M415.761 160.783L408.994 213.942M408.994 213.942H506.481M408.994 213.942H266.899M237.076 160.783L199.735 213.942M199.735 213.942H46.3627M199.735 213.942H266.899M7.51827 160.783H0M7.51827 160.783L22.8054 213.942M22.8054 213.942H0M22.8054 213.942H46.3627M46.3627 213.942V266.405M46.3627 266.405H0M46.3627 266.405H126.307M660.104 266.405V213.942M660.104 266.405H601.963M660.104 266.405H820.745M660.104 213.942H765.36M506.481 213.942L484.427 266.405M484.427 266.405H266.899M484.427 266.405H601.963M266.899 266.405V213.942M266.899 266.405H126.307M126.307 266.405L141.093 319.797M141.093 319.797H101.246H0M141.093 319.797H321.03H394.96M601.963 266.405L625.019 319.797M625.019 319.797H516.505H394.96M625.019 319.797H692.182H750.574H820.745M394.96 319.797L426.537 268.03M759.847 54.6954V107.159M759.847 54.6954H862.346M759.847 107.159H727.518M759.847 107.159H956.826M984.894 107.159L1007.7 54.6954M984.894 107.159H956.826M984.894 107.159H1134.26M1007.7 54.6954H1064.09M1007.7 54.6954H862.346M1185.88 54.6954V107.159M1185.88 54.6954H1225.98M1185.88 54.6954H1064.09M1185.88 107.159H1134.26M1185.88 107.159H1331.24M1440 107.159H1365.57M1365.57 107.159L1347.78 54.6954M1365.57 107.159H1331.24M1347.78 54.6954H1411.18M1347.78 54.6954H1225.98M1411.18 54.6954H1440M1411.18 54.6954V2M1210.69 2L1225.98 54.6954M1064.09 54.6954V2M862.346 54.6954L845.806 2M727.518 107.159L742.054 160.783M742.054 160.783H765.36M956.826 107.159L918.232 160.783M918.232 160.783H765.36M918.232 160.783H986.147M1134.26 107.159L1128.24 160.783M1128.24 160.783H986.147M1128.24 160.783H1225.98M1331.24 107.159V160.783M1331.24 160.783H1379.35M1331.24 160.783H1225.98M1440 160.783H1379.35M1379.35 160.783V213.942M1379.35 213.942H1440M1379.35 213.942H1321.96M765.36 160.783V213.942M765.36 213.942H846.056M986.147 160.783V213.942M986.147 213.942H1145.28M986.147 213.942H846.056M1225.98 160.783L1203.93 213.942M1203.93 213.942H1321.96M1203.93 213.942H1145.28M1321.96 213.942L1343.52 266.405M1343.52 266.405H1412.18M1343.52 266.405H1236M1145.28 213.942L1113.46 266.405M1113.46 266.405H1236M1113.46 266.405H1040.53M846.056 213.942L860.341 266.405M860.341 266.405H1040.53M860.341 266.405H820.745M1412.18 319.797H1440M1412.18 319.797V266.405M1412.18 319.797H1377.35H1236M1412.18 266.405H1440M1236 266.405V319.797M1236 319.797H1163.83H1001.68M1040.53 266.405L1001.68 319.797M1001.68 319.797H946.551H820.745M820.745 266.405V319.797" stroke="#F6EAFF" stroke-opacity="0.19" stroke-width="5"/>
<path d="M693.435 372.26V424.724M693.435 372.26H643.063M693.435 372.26H759.847M693.435 424.724H628.778M693.435 424.724H727.518M0 372.26H126.558M126.558 372.26L143.85 424.724M126.558 372.26H291.709M143.85 424.724H40.5987M143.85 424.724H288.702M291.709 372.26L284.692 346.029M291.709 372.26H344.086M291.709 372.26L277.675 319.565M344.086 372.26V424.724M344.086 372.26H492.196M344.086 424.724H288.702M344.086 424.724H467.135M492.196 372.26L506.481 424.724M492.196 372.26H533.296M506.481 424.724H628.778M506.481 424.724H467.135M533.296 372.26L548.583 346.029M533.296 372.26H643.063M533.296 372.26L563.871 319.565M643.063 372.26V319.565M628.778 424.724L645.82 478.347M645.82 478.347H611.987M645.82 478.347H742.054M40.5987 424.724H0M40.5987 424.724V478.347M40.5987 478.347H237.076M40.5987 478.347H7.51827M288.702 424.724L266.147 478.347M266.147 478.347H415.761M266.147 478.347H237.076M467.135 424.724V478.347M467.135 478.347H611.987M467.135 478.347H415.761M611.987 478.347V531.507M611.987 531.507H660.104M611.987 531.507H506.481M415.761 478.347L408.994 531.507M408.994 531.507H506.481M408.994 531.507H266.899M237.076 478.347L199.735 531.507M199.735 531.507H46.3627M199.735 531.507H266.899M7.51827 478.347H0M7.51827 478.347L22.8054 531.507M22.8054 531.507H0M22.8054 531.507H46.3627M46.3627 531.507V583.97M46.3627 583.97H0M46.3627 583.97H126.307M660.104 583.97V531.507M660.104 583.97H601.963M660.104 583.97H820.745M660.104 531.507H765.36M506.481 531.507L484.427 583.97M484.427 583.97H266.899M484.427 583.97H601.963M266.899 583.97V531.507M266.899 583.97H126.307M126.307 583.97L141.093 637.362M141.093 637.362H101.246H0M141.093 637.362H321.03H394.96M601.963 583.97L625.019 637.362M625.019 637.362H516.505H394.96M625.019 637.362H692.182H750.574H820.745M394.96 637.362L426.537 585.595M759.847 372.26V424.724M759.847 372.26H862.346M759.847 424.724H727.518M759.847 424.724H956.826M984.894 424.724L1007.7 372.26M984.894 424.724H956.826M984.894 424.724H1134.26M1007.7 372.26H1064.09M1007.7 372.26H862.346M1185.88 372.26V424.724M1185.88 372.26H1225.98M1185.88 372.26H1064.09M1185.88 424.724H1134.26M1185.88 424.724H1331.24M1440 424.724H1365.57M1365.57 424.724L1347.78 372.26M1365.57 424.724H1331.24M1347.78 372.26H1411.18M1347.78 372.26H1225.98M1411.18 372.26H1440M1411.18 372.26V319.565M1210.69 319.565L1225.98 372.26M1064.09 372.26V319.565M862.346 372.26L845.806 319.565M727.518 424.724L742.054 478.347M742.054 478.347H765.36M956.826 424.724L918.232 478.347M918.232 478.347H765.36M918.232 478.347H986.147M1134.26 424.724L1128.24 478.347M1128.24 478.347H986.147M1128.24 478.347H1225.98M1331.24 424.724V478.347M1331.24 478.347H1379.35M1331.24 478.347H1225.98M1440 478.347H1379.35M1379.35 478.347V531.507M1379.35 531.507H1440M1379.35 531.507H1321.96M765.36 478.347V531.507M765.36 531.507H846.056M986.147 478.347V531.507M986.147 531.507H1145.28M986.147 531.507H846.056M1225.98 478.347L1203.93 531.507M1203.93 531.507H1321.96M1203.93 531.507H1145.28M1321.96 531.507L1343.52 583.97M1343.52 583.97H1412.18M1343.52 583.97H1236M1145.28 531.507L1113.46 583.97M1113.46 583.97H1236M1113.46 583.97H1040.53M846.056 531.507L860.341 583.97M860.341 583.97H1040.53M860.341 583.97H820.745M1412.18 637.362H1440M1412.18 637.362V583.97M1412.18 637.362H1377.35H1236M1412.18 583.97H1440M1236 583.97V637.362M1236 637.362H1163.83H1001.68M1040.53 583.97L1001.68 637.362M1001.68 637.362H946.551H820.745M820.745 583.97V637.362" stroke="#F6EAFF" stroke-opacity="0.19" stroke-width="5"/>
</svg>
