<svg width="706" height="523" viewBox="0 0 706 523" fill="none" xmlns="http://www.w3.org/2000/svg">
<path d="M80 12H182.629C191.885 12 197.656 22.0375 192.999 30.0375L179.631 53V459H80V12Z" fill="#5C6374"/>
<path d="M92.4104 159.363C94.3725 162.47 98.9041 162.47 100.866 159.363L188.434 20.6694C190.536 17.34 188.144 13 184.206 13H9.07012C5.13267 13 2.74019 17.34 4.84229 20.6694L92.4104 159.363Z" fill="#768098"/>
<path d="M168 7L168 381H26L26 7L168 7Z" fill="#768098"/>
<path d="M189 16C189 11.771 179.321 7.71408 162.078 4.71594C144.836 1.7178 121.432 0.0223522 96.9841 0.000219134C72.5358 -0.0219139 49.0311 1.63107 31.6081 4.59782C14.1851 7.56458 4.26098 11.6038 4.00507 15.8325C3.74916 20.0612 13.1823 24.1355 30.2424 27.1647C47.3026 30.1939 70.6021 31.9316 95.0477 31.998C119.493 32.0644 143.097 30.4541 160.698 27.519C178.3 24.584 188.468 20.563 188.98 16.3349L96.5 16H189Z" fill="#474E60"/>
<path d="M76 523C48.3858 523 26 500.614 26 473L26 381H706V523H76Z" fill="#768098"/>
<path d="M78.3267 119.524C87.1034 117.948 95.65 127.998 95.65 127.998C95.65 127.998 108.735 118.911 115.421 119.524C122.727 120.195 128.464 125.796 131.803 132.329C136.254 141.037 133.342 148.924 128.414 157.372C121.823 168.67 99.6043 177.708 99.6043 177.708C99.6043 177.708 68.3604 172.813 62.1332 157.372C58.4753 148.302 57.4662 140.923 62.1332 132.329C65.9804 125.244 70.3917 120.949 78.3267 119.524Z" fill="#F7C1C1" stroke="#F7C1C1"/>
<path d="M96.0252 127.245C96.0252 127.245 88.7451 129.881 86.8319 137.789C84.9187 145.698 96.0252 156.242 96.0252 156.242" stroke="#C49595" stroke-width="3"/>
<path d="M94.2324 127.998C94.2324 127.998 82.5838 124.068 79.1707 117.912C75.5795 111.434 79.1707 99 79.1707 99C79.1707 99 91.4109 105.069 94.2324 112.364C95.1559 114.752 95.3061 117.881 95.1686 120.712C95.816 117.21 96.876 113.217 98.5722 110.599C102.488 104.556 113.634 99 113.634 99C113.634 99 117.234 111.439 113.634 117.912C109.511 125.324 94.2324 127.998 94.2324 127.998Z" fill="#8DC679"/>
<path d="M94.2324 127.998C94.2324 127.998 82.5838 124.068 79.1707 117.912C75.5795 111.434 79.1707 99 79.1707 99C79.1707 99 91.4109 105.069 94.2324 112.364C96.4381 118.067 94.2324 127.998 94.2324 127.998ZM94.2324 127.998C94.2324 127.998 94.9588 116.175 98.5722 110.599C102.488 104.556 113.634 99 113.634 99C113.634 99 117.234 111.439 113.634 117.912C109.511 125.324 94.2324 127.998 94.2324 127.998Z" stroke="#8DC679"/>
<path d="M157 362C157 381.5 164 391.5 184.5 391.5" stroke="#768098" stroke-width="21"/>
</svg>
