<svg width="1081" height="684" viewBox="0 0 1081 684" fill="none" xmlns="http://www.w3.org/2000/svg">
<path d="M167 9.50879L167 542H25L25 9.50879L167 9.50879Z" fill="#768098"/>
<path d="M92.4104 157.363C94.3725 160.47 98.9041 160.47 100.866 157.363L188.434 18.6694C190.536 15.34 188.144 11 184.206 11H9.07012C5.13267 11 2.74019 15.34 4.84229 18.6694L92.4104 157.363Z" fill="#768098"/>
<ellipse cx="96" cy="12.6784" rx="91" ry="12.6784" fill="#474E60"/>
<ellipse cx="96.2034" cy="143.754" rx="30.6878" ry="27.2467" fill="#91C98C"/>
<path d="M109.515 98.6352C108.036 91.7991 99.7536 87.385 78.457 124.417H116.17L109.515 98.6352Z" fill="#91C98C" stroke="#91C88C"/>
<path d="M113.393 80.8823L105.444 94.8265" stroke="#876057" stroke-width="6"/>
<path d="M75 684C47.3858 684 25 661.614 25 634L25 542L1554 542V684L75 684Z" fill="#768098"/>
</svg>
