<svg width="1368" height="684" viewBox="0 0 1368 684" fill="none" xmlns="http://www.w3.org/2000/svg">
<path d="M167 9.50879L167 542H25L25 9.50879L167 9.50879Z" fill="#768098"/>
<path d="M92.4104 157.362C94.3725 160.47 98.9041 160.47 100.866 157.362L188.434 18.6693C190.536 15.3399 188.144 10.9999 184.206 10.9999H9.07012C5.13267 10.9999 2.74019 15.3399 4.84229 18.6693L92.4104 157.362Z" fill="#768098"/>
<ellipse cx="96" cy="12.6784" rx="91" ry="12.6784" fill="#474E60"/>
<ellipse cx="96.2034" cy="143.754" rx="30.6878" ry="27.2467" fill="#91C98C"/>
<path d="M109.515 98.6353C108.036 91.7992 99.7536 87.3851 78.457 124.417H116.17L109.515 98.6353Z" fill="#91C98C" stroke="#91C88C"/>
<path d="M113.395 80.8818L105.446 94.826" stroke="#876057" stroke-width="6"/>
<path d="M75 684C47.3858 684 25 661.614 25 634L25 542L1368 542V684L75 684Z" fill="#768098"/>
</svg>
