<svg width="1368" height="693" viewBox="0 0 1368 693" fill="none" xmlns="http://www.w3.org/2000/svg">
<path d="M77 693C49.3858 693 27 670.614 27 643L27 586L1368 586L1368 693L77 693Z" fill="#5C6374"/>
<path d="M78 8L183.442 10.9174C192.738 11.1746 198.221 21.4512 193.259 29.3161L178 53.5L182.5 608H78V8Z" fill="#5C6374"/>
<path d="M167 9.50879L167 542H25.0001L25.0001 9.50879L167 9.50879Z" fill="#768098"/>
<path d="M92.4105 157.363C94.3725 160.47 98.9041 160.47 100.866 157.363L188.434 18.6694C190.536 15.34 188.144 11 184.206 11H9.07019C5.13273 11 2.74025 15.34 4.84235 18.6694L92.4105 157.363Z" fill="#768098"/>
<ellipse cx="96.0001" cy="12.6784" rx="91" ry="12.6784" fill="#474E60"/>
<ellipse cx="96.2029" cy="143.754" rx="30.6878" ry="27.2467" fill="#91C98C"/>
<path d="M109.514 98.6352C108.035 91.7991 99.7534 87.385 78.4568 124.417H116.17L109.514 98.6352Z" fill="#91C98C" stroke="#91C88C"/>
<path d="M113.393 80.8823L105.445 94.8265" stroke="#876057" stroke-width="6"/>
<path d="M75 684C47.3858 684 25.0001 661.614 25.0001 634L25.0001 542L1368 542V684L75 684Z" fill="#768098"/>
<path d="M156 523C156 542.5 163 552.5 183.5 552.5" stroke="#768098" stroke-width="21"/>
</svg>
