<svg width="753" height="592" viewBox="0 0 753 592" fill="none" xmlns="http://www.w3.org/2000/svg">
<g filter="url(#filter0_d_172_10484)">
<rect y="217.67" width="705.727" height="374.33" fill="#626A7F"/>
</g>
<path d="M0 217.67L12.8872 205L718 206.152L705.727 217.67H0Z" fill="#474E60"/>
<path d="M705.727 217.094L718 206.152V580.482L705.727 592V217.094Z" fill="#474E60"/>
<rect x="29.457" y="246.464" width="648.041" height="317.893" fill="white"/>
<rect x="321" y="59" width="73" height="151" fill="#474E60"/>
<rect x="311" y="59" width="73" height="151" fill="#626A7F"/>
<rect x="1564" y="100" width="1482" height="89" transform="rotate(180 1564 100)" fill="#626A7F"/>
<rect x="1560" y="114" width="1482" height="23" transform="rotate(180 1560 114)" fill="#474E60"/>
<rect x="1560" y="23" width="1482" height="23" transform="rotate(180 1560 23)" fill="#474E60"/>
<circle cx="111" cy="83.0001" r="5" transform="rotate(180 111 83.0001)" fill="#474E60"/>
<circle cx="111" cy="66.0001" r="5" transform="rotate(180 111 66.0001)" fill="#474E60"/>
<circle cx="111" cy="49.0001" r="5" transform="rotate(180 111 49.0001)" fill="#474E60"/>
<circle cx="111" cy="32.0001" r="5" transform="rotate(180 111 32.0001)" fill="#474E60"/>
<defs>
<filter id="filter0_d_172_10484" x="0" y="207.67" width="715.727" height="384.33" filterUnits="userSpaceOnUse" color-interpolation-filters="sRGB">
<feFlood flood-opacity="0" result="BackgroundImageFix"/>
<feColorMatrix in="SourceAlpha" type="matrix" values="0 0 0 0 0 0 0 0 0 0 0 0 0 0 0 0 0 0 127 0" result="hardAlpha"/>
<feOffset dx="10" dy="-10"/>
<feComposite in2="hardAlpha" operator="out"/>
<feColorMatrix type="matrix" values="0 0 0 0 0.32549 0 0 0 0 0.0784314 0 0 0 0 0.572549 0 0 0 1 0"/>
<feBlend mode="normal" in2="BackgroundImageFix" result="effect1_dropShadow_172_10484"/>
<feBlend mode="normal" in="SourceGraphic" in2="effect1_dropShadow_172_10484" result="shape"/>
</filter>
</defs>
</svg>
