<svg width="396" height="437" viewBox="0 0 396 437" fill="none" xmlns="http://www.w3.org/2000/svg">
<path d="M79 7L178.506 10.4506C188.481 10.7965 193.698 22.4596 187.308 30.1266L179.405 39.6083L183.923 437H79V7Z" fill="#656D82"/>
<path d="M92.4104 158.363C94.3725 161.47 98.9041 161.47 100.866 158.363L188.434 19.6694C190.536 16.34 188.144 12 184.206 12H9.07012C5.13267 12 2.74019 16.34 4.84229 19.6694L92.4104 158.363Z" fill="#909AB4"/>
<path d="M168 12L168 346H26L26 12L168 12Z" fill="#909AB4"/>
<ellipse cx="97" cy="16" rx="93" ry="16" fill="#474E60"/>
<path d="M72.2857 141.573C75.9928 162.158 99.6811 190.372 113.1 176.026C126.519 161.68 138.61 142.85 134.802 126.709C130.994 110.567 125.652 107.023 112.672 100.702C99.6914 94.3811 86.4911 101.182 78.6908 110.632C70.8905 120.081 70.1049 129.463 72.2857 141.573Z" fill="#FA5151" stroke="#FA5151"/>
<path d="M124.505 116.288C119.151 118.46 100.317 98.4681 100.317 98.4681L98.0486 98.8137C98.0486 98.8137 95.4784 113.826 87.4039 114.771C79.5926 115.685 71.9902 110.085 71.2787 102.891C70.7775 97.8241 78.1077 96.9388 85.2227 97.2487C81.1662 96.2308 77.8572 94.4207 77.7669 91.228C77.5714 84.3172 85.2712 78.8081 92.7273 80.5241C100.705 82.3603 100.317 98.4681 100.317 98.4681C100.317 98.4681 108.139 79.9594 116.821 83.4599C123.107 85.9948 126.32 92.0772 124.442 97.8923C124.358 98.1544 124.254 98.4002 124.131 98.6304C127.489 99.6528 129.91 101.437 130.174 104.419C130.631 109.559 129.859 114.116 124.505 116.288Z" fill="#61865B"/>
<path d="M100.317 98.4681C100.317 98.4681 119.151 118.46 124.505 116.288C129.859 114.116 130.631 109.559 130.174 104.419C129.221 93.6826 100.317 98.4681 100.317 98.4681ZM100.317 98.4681C100.317 98.4681 121.822 106.011 124.442 97.8923C126.32 92.0772 123.107 85.9948 116.821 83.4599C108.139 79.9594 100.317 98.4681 100.317 98.4681ZM100.317 98.4681C100.317 98.4681 78.0035 99.5898 77.7669 91.228C77.5714 84.3172 85.2712 78.8081 92.7273 80.5241C100.705 82.3603 100.317 98.4681 100.317 98.4681ZM100.317 98.4681L98.0486 98.8137M98.0486 98.8137C98.0486 98.8137 70.3195 93.1931 71.2787 102.891C71.9902 110.085 79.5926 115.685 87.4039 114.771C95.4784 113.826 98.0486 98.8137 98.0486 98.8137Z" stroke="#61865B"/>
<ellipse cx="0.776676" cy="1.94514" rx="0.776676" ry="1.94514" transform="matrix(0.983133 0.18289 -0.188298 0.982112 83.3884 120.615)" fill="#D9DB69"/>
<ellipse cx="0.776676" cy="1.94514" rx="0.776676" ry="1.94514" transform="matrix(0.983133 0.18289 -0.188298 0.982112 99.9224 122.387)" fill="#D9DB69"/>
<ellipse cx="0.776676" cy="1.94514" rx="0.776676" ry="1.94514" transform="matrix(0.983133 0.18289 -0.188298 0.982112 120.197 124.598)" fill="#D9DB69"/>
<ellipse cx="0.776676" cy="1.94514" rx="0.776676" ry="1.94514" transform="matrix(0.983133 0.18289 -0.188298 0.982112 90.1943 133.665)" fill="#D9DB69"/>
<ellipse cx="0.776676" cy="1.94514" rx="0.776676" ry="1.94514" transform="matrix(0.983133 0.18289 -0.188298 0.982112 109.938 135.312)" fill="#D9DB69"/>
<ellipse cx="0.776676" cy="1.94514" rx="0.776676" ry="1.94514" transform="matrix(0.983133 0.18289 -0.188298 0.982112 100.212 146.59)" fill="#D9DB69"/>
<ellipse cx="0.776676" cy="1.94514" rx="0.776676" ry="1.94514" transform="matrix(0.983133 0.18289 -0.188298 0.982112 119.46 146.573)" fill="#D9DB69"/>
<ellipse cx="0.776676" cy="1.94514" rx="0.776676" ry="1.94514" transform="matrix(0.983133 0.18289 -0.188298 0.982112 82.6655 145.005)" fill="#D9DB69"/>
<ellipse cx="0.776676" cy="1.94514" rx="0.776676" ry="1.94514" transform="matrix(0.983133 0.18289 -0.188298 0.982112 109.624 161.148)" fill="#D9DB69"/>
<ellipse cx="0.776676" cy="1.94514" rx="0.776676" ry="1.94514" transform="matrix(0.983133 0.18289 -0.188298 0.982112 93.6706 161.256)" fill="#D9DB69"/>
<path d="M76 437C48.3858 437 26 414.614 26 387L26 295H396V437H76Z" fill="#909AB4"/>
<path d="M157 276C157 295.5 164 305.5 184.5 305.5" stroke="#909AB4" stroke-width="21"/>
</svg>
