<svg width="288" height="437" viewBox="0 0 288 437" fill="none" xmlns="http://www.w3.org/2000/svg">
<path d="M92.4104 158.363C94.3725 161.47 98.9041 161.47 100.866 158.363L188.434 19.6694C190.536 16.34 188.144 12 184.206 12H9.07012C5.13267 12 2.74019 16.34 4.84229 19.6694L92.4104 158.363Z" fill="#909AB4"/>
<path d="M168 12L168 346H26L26 12L168 12Z" fill="#909AB4"/>
<ellipse cx="97" cy="16" rx="93" ry="16" fill="#474E60"/>
<path d="M72.2853 141.573C75.9924 162.158 99.6807 190.372 113.1 176.026C126.519 161.68 138.61 142.85 134.802 126.709C130.994 110.567 125.652 107.023 112.671 100.702C99.691 94.3811 86.4907 101.182 78.6904 110.632C70.8901 120.081 70.1045 129.463 72.2853 141.573Z" fill="#FA5151" stroke="#FA5151"/>
<path d="M124.504 116.288C119.15 118.46 100.316 98.4681 100.316 98.4681L98.0474 98.8137C98.0474 98.8137 95.4773 113.826 87.4027 114.771C79.5914 115.685 71.989 110.085 71.2775 102.891C70.7764 97.8241 78.1065 96.9388 85.2215 97.2487C81.165 96.2308 77.8561 94.4207 77.7657 91.228C77.5702 84.3172 85.2701 78.8081 92.7261 80.5241C100.704 82.3603 100.316 98.4681 100.316 98.4681C100.316 98.4681 108.138 79.9594 116.82 83.4599C123.106 85.9948 126.318 92.0772 124.441 97.8923C124.357 98.1544 124.252 98.4002 124.13 98.6304C127.488 99.6528 129.909 101.437 130.173 104.419C130.63 109.559 129.858 114.116 124.504 116.288Z" fill="#61865B"/>
<path d="M100.316 98.4681C100.316 98.4681 119.15 118.46 124.504 116.288C129.858 114.116 130.63 109.559 130.173 104.419C129.22 93.6826 100.316 98.4681 100.316 98.4681ZM100.316 98.4681C100.316 98.4681 121.82 106.011 124.441 97.8923C126.318 92.0772 123.106 85.9948 116.82 83.4599C108.138 79.9594 100.316 98.4681 100.316 98.4681ZM100.316 98.4681C100.316 98.4681 78.0023 99.5898 77.7657 91.228C77.5702 84.3172 85.2701 78.8081 92.7261 80.5241C100.704 82.3603 100.316 98.4681 100.316 98.4681ZM100.316 98.4681L98.0474 98.8137M98.0474 98.8137C98.0474 98.8137 70.3183 93.1931 71.2775 102.891C71.989 110.085 79.5914 115.685 87.4027 114.771C95.4773 113.826 98.0474 98.8137 98.0474 98.8137Z" stroke="#61865B"/>
<ellipse cx="0.776676" cy="1.94514" rx="0.776676" ry="1.94514" transform="matrix(0.983133 0.18289 -0.188298 0.982112 83.3887 120.615)" fill="#D9DB69"/>
<ellipse cx="0.776676" cy="1.94514" rx="0.776676" ry="1.94514" transform="matrix(0.983133 0.18289 -0.188298 0.982112 99.9219 122.387)" fill="#D9DB69"/>
<ellipse cx="0.776676" cy="1.94514" rx="0.776676" ry="1.94514" transform="matrix(0.983133 0.18289 -0.188298 0.982112 120.197 124.598)" fill="#D9DB69"/>
<ellipse cx="0.776676" cy="1.94514" rx="0.776676" ry="1.94514" transform="matrix(0.983133 0.18289 -0.188298 0.982112 90.1934 133.665)" fill="#D9DB69"/>
<ellipse cx="0.776676" cy="1.94514" rx="0.776676" ry="1.94514" transform="matrix(0.983133 0.18289 -0.188298 0.982112 109.938 135.312)" fill="#D9DB69"/>
<ellipse cx="0.776676" cy="1.94514" rx="0.776676" ry="1.94514" transform="matrix(0.983133 0.18289 -0.188298 0.982112 100.211 146.59)" fill="#D9DB69"/>
<ellipse cx="0.776676" cy="1.94514" rx="0.776676" ry="1.94514" transform="matrix(0.983133 0.18289 -0.188298 0.982112 119.461 146.573)" fill="#D9DB69"/>
<ellipse cx="0.776676" cy="1.94514" rx="0.776676" ry="1.94514" transform="matrix(0.983133 0.18289 -0.188298 0.982112 82.666 145.005)" fill="#D9DB69"/>
<ellipse cx="0.776676" cy="1.94514" rx="0.776676" ry="1.94514" transform="matrix(0.983133 0.18289 -0.188298 0.982112 109.623 161.148)" fill="#D9DB69"/>
<ellipse cx="0.776676" cy="1.94514" rx="0.776676" ry="1.94514" transform="matrix(0.983133 0.18289 -0.188298 0.982112 93.6699 161.256)" fill="#D9DB69"/>
<path d="M76 437C48.3858 437 26 414.614 26 387L26 295L745 295V437L76 437Z" fill="#909AB4"/>
</svg>
