<svg width="396" height="437" viewBox="0 0 396 437" fill="none" xmlns="http://www.w3.org/2000/svg">
<path d="M92.4104 158.362C94.3725 161.47 98.9041 161.47 100.866 158.362L188.434 19.6693C190.536 16.3399 188.144 11.9999 184.206 11.9999H9.07012C5.13267 11.9999 2.74019 16.3399 4.84229 19.6693L92.4104 158.362Z" fill="#909AB4"/>
<path d="M168 12L168 346H26L26 12L168 12Z" fill="#909AB4"/>
<ellipse cx="97" cy="16" rx="93" ry="16" fill="#474E60"/>
<path d="M72.2873 141.573C75.9944 162.158 99.6827 190.372 113.102 176.026C126.52 161.681 138.612 142.851 134.804 126.709C130.996 110.568 125.654 107.023 112.673 100.702C99.693 94.3814 86.4927 101.183 78.6924 110.632C70.8921 120.082 70.1065 129.463 72.2873 141.573Z" fill="#FA5151" stroke="#FA5151"/>
<path d="M124.506 116.288C119.152 118.46 100.318 98.4684 100.318 98.4684L98.0494 98.814C98.0494 98.814 95.4792 113.826 87.4047 114.771C79.5934 115.686 71.991 110.085 71.2795 102.891C70.7783 97.8244 78.1085 96.9391 85.2235 97.249C81.167 96.2311 77.858 94.421 77.7677 91.2283C77.5722 84.3175 85.272 78.8084 92.7281 80.5244C100.706 82.3606 100.318 98.4684 100.318 98.4684C100.318 98.4684 108.14 79.9597 116.822 83.4602C123.108 85.9951 126.32 92.0776 124.443 97.8926C124.359 98.1547 124.254 98.4005 124.132 98.6307C127.49 99.6531 129.91 101.438 130.175 104.419C130.632 109.56 129.86 114.116 124.506 116.288Z" fill="#61865B"/>
<path d="M100.318 98.4684C100.318 98.4684 119.152 118.46 124.506 116.288C129.86 114.116 130.632 109.56 130.175 104.419C129.222 93.6829 100.318 98.4684 100.318 98.4684ZM100.318 98.4684C100.318 98.4684 121.822 106.012 124.443 97.8926C126.32 92.0776 123.108 85.9951 116.822 83.4602C108.14 79.9597 100.318 98.4684 100.318 98.4684ZM100.318 98.4684C100.318 98.4684 78.0043 99.5901 77.7677 91.2283C77.5722 84.3175 85.272 78.8084 92.7281 80.5244C100.706 82.3606 100.318 98.4684 100.318 98.4684ZM100.318 98.4684L98.0494 98.814M98.0494 98.814C98.0494 98.814 70.3203 93.1934 71.2795 102.891C71.991 110.085 79.5934 115.686 87.4047 114.771C95.4792 113.826 98.0494 98.814 98.0494 98.814Z" stroke="#61865B"/>
<ellipse cx="0.776676" cy="1.94514" rx="0.776676" ry="1.94514" transform="matrix(0.983133 0.18289 -0.188298 0.982112 83.3906 120.615)" fill="#D9DB69"/>
<ellipse cx="0.776676" cy="1.94514" rx="0.776676" ry="1.94514" transform="matrix(0.983133 0.18289 -0.188298 0.982112 99.9258 122.388)" fill="#D9DB69"/>
<ellipse cx="0.776676" cy="1.94514" rx="0.776676" ry="1.94514" transform="matrix(0.983133 0.18289 -0.188298 0.982112 120.199 124.599)" fill="#D9DB69"/>
<ellipse cx="0.776676" cy="1.94514" rx="0.776676" ry="1.94514" transform="matrix(0.983133 0.18289 -0.188298 0.982112 90.1953 133.665)" fill="#D9DB69"/>
<ellipse cx="0.776676" cy="1.94514" rx="0.776676" ry="1.94514" transform="matrix(0.983133 0.18289 -0.188298 0.982112 109.941 135.312)" fill="#D9DB69"/>
<ellipse cx="0.776676" cy="1.94514" rx="0.776676" ry="1.94514" transform="matrix(0.983133 0.18289 -0.188298 0.982112 100.215 146.59)" fill="#D9DB69"/>
<ellipse cx="0.776676" cy="1.94514" rx="0.776676" ry="1.94514" transform="matrix(0.983133 0.18289 -0.188298 0.982112 119.461 146.573)" fill="#D9DB69"/>
<ellipse cx="0.776676" cy="1.94514" rx="0.776676" ry="1.94514" transform="matrix(0.983133 0.18289 -0.188298 0.982112 82.668 145.005)" fill="#D9DB69"/>
<ellipse cx="0.776676" cy="1.94514" rx="0.776676" ry="1.94514" transform="matrix(0.983133 0.18289 -0.188298 0.982112 109.625 161.147)" fill="#D9DB69"/>
<ellipse cx="0.776676" cy="1.94514" rx="0.776676" ry="1.94514" transform="matrix(0.983133 0.18289 -0.188298 0.982112 93.6719 161.256)" fill="#D9DB69"/>
<path d="M76 437C48.3858 437 26 414.614 26 387L26 295H396V437H76Z" fill="#909AB4"/>
</svg>
