<svg width="109" height="108" viewBox="0 0 109 108" fill="none" xmlns="http://www.w3.org/2000/svg">
<path d="M47.5104 85.4802C65.6715 97.2238 103.767 99.3622 102.467 79.1751C101.167 58.988 95.5419 36.6327 80.6617 28.1003C65.7816 19.5678 59.3165 21.0739 45.3363 26.3506C31.3562 31.6272 27.1196 46.3272 28.7131 58.8453C30.3066 71.3633 36.8268 78.5718 47.5104 85.4802Z" fill="#FA5151" stroke="#FA5151"/>
<path d="M65.4907 28.4722C63.3296 34.0207 34.8817 34.042 34.8817 34.042L33.5325 35.9874C33.5325 35.9874 43.0343 48.5072 38.0172 55.2307C33.1638 61.735 23.5431 63.4856 17.6113 58.9439C13.433 55.7448 17.967 49.6219 23.2499 44.5037C19.6033 46.8283 15.8895 48.0331 13.4167 45.8482C8.06416 41.1188 9.37214 31.4563 15.958 27.0744C23.0049 22.3858 34.8817 34.042 34.8817 34.042C34.8817 34.042 26.4692 15.1156 35.271 11.0736C41.6446 8.14668 48.5129 10.0289 51.5679 15.5398C51.7056 15.7882 51.817 16.0398 51.9037 16.2943C55.0582 14.4965 58.1221 13.9401 60.5594 15.8453C64.7613 19.1298 67.6517 22.9237 65.4907 28.4722Z" fill="#61865B"/>
<path d="M34.8817 34.042C34.8817 34.042 63.3296 34.0207 65.4907 28.4722C67.6517 22.9237 64.7613 19.1298 60.5594 15.8453C51.7832 8.98508 34.8817 34.042 34.8817 34.042ZM34.8817 34.042C34.8817 34.042 55.8333 23.2342 51.5679 15.5398C48.5129 10.0289 41.6446 8.14668 35.271 11.0736C26.4692 15.1156 34.8817 34.042 34.8817 34.042ZM34.8817 34.042C34.8817 34.042 19.893 51.5704 13.4167 45.8482C8.06416 41.1188 9.37214 31.4563 15.958 27.0744C23.0049 22.3858 34.8817 34.042 34.8817 34.042ZM34.8817 34.042L33.5325 35.9874M33.5325 35.9874C33.5325 35.9874 9.61411 52.8208 17.6113 58.9439C23.5431 63.4856 33.1638 61.735 38.0172 55.2307C43.0343 48.5072 33.5325 35.9874 33.5325 35.9874Z" stroke="#61865B"/>
<ellipse cx="41.4065" cy="63.5163" rx="0.802825" ry="2.00706" transform="rotate(-36.0559 41.4065 63.5163)" fill="#D9DB69"/>
<ellipse cx="54.4788" cy="52.3648" rx="0.802825" ry="2.00706" transform="rotate(-36.0559 54.4788 52.3648)" fill="#D9DB69"/>
<ellipse cx="70.5335" cy="38.7167" rx="0.802825" ry="2.00706" transform="rotate(-36.0559 70.5335 38.7167)" fill="#D9DB69"/>
<ellipse cx="56.0842" cy="67.6185" rx="0.802825" ry="2.00706" transform="rotate(-36.0559 56.0842 67.6185)" fill="#D9DB69"/>
<ellipse cx="71.3362" cy="53.9704" rx="0.802825" ry="2.00706" transform="rotate(-36.0559 71.3362 53.9704)" fill="#D9DB69"/>
<ellipse cx="72.9436" cy="69.224" rx="0.802825" ry="2.00706" transform="rotate(-36.0559 72.9436 69.224)" fill="#D9DB69"/>
<ellipse cx="86.5901" cy="54.7732" rx="0.802825" ry="2.00706" transform="rotate(-36.0559 86.5901 54.7732)" fill="#D9DB69"/>
<ellipse cx="59.2952" cy="81.2665" rx="0.802825" ry="2.00706" transform="rotate(-36.0559 59.2952 81.2665)" fill="#D9DB69"/>
<ellipse cx="90.6057" cy="72.4353" rx="0.802825" ry="2.00706" transform="rotate(-36.0559 90.6057 72.4353)" fill="#D9DB69"/>
<ellipse cx="79.3655" cy="84.4777" rx="0.802825" ry="2.00706" transform="rotate(-36.0559 79.3655 84.4777)" fill="#D9DB69"/>
</svg>
