<svg width="1920" height="131" viewBox="0 0 1920 131" fill="none" xmlns="http://www.w3.org/2000/svg">
<path d="M1920 94L0 94V40C0 17.9086 17.9086 0 40 0L1920 0V94Z" fill="#97A9CB"/>
<path d="M1920 131L36.5 131C16.3416 131 0 114.658 0 94.5V94.5C0 74.3416 16.3416 58 36.5 58L1920 58V131Z" fill="#535861"/>
<line x1="82.377" y1="57" x2="82.377" stroke="#6A6868"/>
<line x1="157.721" y1="57" x2="157.721" stroke="#6A6868"/>
<line x1="233.064" y1="57" x2="233.064" stroke="#6A6868"/>
<line x1="308.408" y1="58" x2="308.408" y2="1" stroke="#6A6868"/>
<line x1="383.752" y1="58" x2="383.752" y2="1" stroke="#6A6868"/>
<line x1="459.094" y1="58" x2="459.094" y2="1" stroke="#6A6868"/>
<line x1="534.438" y1="58" x2="534.438" y2="1" stroke="#6A6868"/>
<line x1="609.781" y1="58" x2="609.781" y2="1" stroke="#6A6868"/>
<line x1="685.125" y1="58" x2="685.125" y2="1" stroke="#6A6868"/>
<line x1="760.469" y1="57" x2="760.469" stroke="#6A6868"/>
<line x1="835.812" y1="57" x2="835.812" stroke="#6A6868"/>
<line x1="911.156" y1="57" x2="911.156" stroke="#6A6868"/>
<line x1="986.5" y1="57" x2="986.5" stroke="#6A6868"/>
<line x1="1061.84" y1="57" x2="1061.84" stroke="#6A6868"/>
<line x1="1137.18" y1="57" x2="1137.18" stroke="#6A6868"/>
<line x1="1212.53" y1="58" x2="1212.53" y2="1" stroke="#6A6868"/>
<line x1="1287.87" y1="58" x2="1287.87" y2="1" stroke="#6A6868"/>
<line x1="1363.21" y1="58" x2="1363.21" y2="1" stroke="#6A6868"/>
<line x1="1438.56" y1="57" x2="1438.56" stroke="#6A6868"/>
<line x1="1513.9" y1="57" x2="1513.9" stroke="#6A6868"/>
<line x1="1589.25" y1="57" x2="1589.25" stroke="#6A6868"/>
<line x1="1664.59" y1="58" x2="1664.59" y2="1" stroke="#6A6868"/>
<line x1="1739.93" y1="58" x2="1739.93" y2="1" stroke="#6A6868"/>
<line x1="1815.27" y1="58" x2="1815.27" y2="1" stroke="#6A6868"/>
<ellipse cx="48.9723" cy="94" rx="38.9274" ry="31" fill="#FAB021"/>
<ellipse cx="177.056" cy="94" rx="38.9274" ry="31" fill="#FAB021"/>
<ellipse cx="305.14" cy="94" rx="38.9274" ry="31" fill="#FAB021"/>
<ellipse cx="433.224" cy="94" rx="38.9274" ry="31" fill="#FAB021"/>
<ellipse cx="561.308" cy="94" rx="38.9274" ry="31" fill="#FAB021"/>
<ellipse cx="689.392" cy="94" rx="38.9274" ry="31" fill="#FAB021"/>
<ellipse cx="817.474" cy="94" rx="38.9274" ry="31" fill="#FAB021"/>
<ellipse cx="945.56" cy="94" rx="38.9274" ry="31" fill="#FAB021"/>
<ellipse cx="1073.64" cy="94" rx="38.9274" ry="31" fill="#FAB021"/>
<ellipse cx="1201.73" cy="94" rx="38.9274" ry="31" fill="#FAB021"/>
<ellipse cx="1329.81" cy="94" rx="38.9274" ry="31" fill="#FAB021"/>
<ellipse cx="1457.89" cy="94" rx="38.9274" ry="31" fill="#FAB021"/>
<ellipse cx="1585.98" cy="94" rx="38.9274" ry="31" fill="#FAB021"/>
<ellipse cx="1714.06" cy="94" rx="38.9274" ry="31" fill="#FAB021"/>
<ellipse cx="1842.15" cy="94" rx="38.9274" ry="31" fill="#FAB021"/>
</svg>
